<?xml version="1.0" encoding="UTF-8"?>
<svg version="1.1" xmlns="http://www.w3.org/2000/svg" width="591" height="590">
<path d="M0 0 C0.81624847 -0.00067474 1.63249695 -0.00134949 2.47348022 -0.00204468 C84.14832487 0.10463902 158.35094186 36.98451523 215.29174805 93.98144531 C220.71530387 99.47790333 225.68100106 105.11169369 230.375 111.25 C231.1690625 112.2503125 231.963125 113.250625 232.78125 114.28125 C245.97631684 130.97861631 257.1983403 149.08520462 266.40429688 168.26123047 C267.32704561 170.1517514 268.28926649 172.01563821 269.265625 173.87890625 C283.89173811 202.43963467 291.72405188 235.58053721 295.375 267.25 C295.4692627 267.98017334 295.56352539 268.71034668 295.66064453 269.46264648 C296.63425053 277.71913886 296.61864497 286.01045642 296.625 294.3125 C296.62601212 295.50510437 296.62601212 295.50510437 296.62704468 296.72180176 C296.57344633 336.69714971 287.20918189 375.64312509 271.375 412.25 C271.02824219 413.05405273 270.68148437 413.85810547 270.32421875 414.68652344 C259.0061176 440.58062537 242.93860428 466.15999622 223.60546875 486.84375 C221.73254756 488.86427443 219.9279348 490.91833166 218.12890625 493.00390625 C208.50824234 504.03087466 197.96716973 514.31887353 186.375 523.25 C185.28855733 524.12406044 184.20402749 525.00050211 183.12109375 525.87890625 C139.51612366 561.06131 84.93936073 583.06483321 29.375 589.25 C28.570625 589.3442627 27.76625 589.43852539 26.9375 589.53564453 C18.3902971 590.43645268 9.83501793 590.49339278 1.25 590.5 C0.45709564 590.50067474 -0.33580872 590.50134949 -1.15274048 590.50204468 C-15.15745752 590.48322941 -28.79646491 589.58424018 -42.625 587.25 C-44.13199463 587.00056641 -44.13199463 587.00056641 -45.66943359 586.74609375 C-103.10485182 576.95132797 -156.80128896 550.58695116 -199.17919922 510.59423828 C-201.24106408 508.67721229 -203.3704992 506.8412435 -205.5 505 C-208.85770368 502.0315953 -211.81266748 498.90842203 -214.69921875 495.484375 C-216.99002042 492.82648746 -219.40305547 490.30077103 -221.8125 487.75 C-259.27305354 447.37347187 -283.15681608 392.21507024 -291.625 338.25 C-291.77453125 337.33444336 -291.9240625 336.41888672 -292.078125 335.47558594 C-301.66881884 274.9756703 -288.42255353 211.91880305 -259.625 158.25 C-259.27614746 157.59628418 -258.92729492 156.94256836 -258.56787109 156.26904297 C-240.28740861 122.26098007 -214.3902445 89.77879586 -183.625 66.25 C-182.36366549 65.24985436 -181.10332541 64.24845388 -179.84375 63.24609375 C-129.00614409 23.14587009 -64.81332126 0.04838835 0 0 Z " fill="#000000" transform="translate(294.625,-0.25)"/>
<path d="M0 0 C2.34629822 -0.38095093 2.34629822 -0.38095093 5.32006836 -0.38818359 C6.43139633 -0.39764008 7.5427243 -0.40709656 8.68772888 -0.4168396 C10.49552574 -0.40773056 10.49552574 -0.40773056 12.33984375 -0.3984375 C14.18939415 -0.40274277 14.18939415 -0.40274277 16.0763092 -0.40713501 C19.35834471 -0.40970438 22.63995684 -0.39760162 25.92193604 -0.38085938 C27.93401682 -0.37501013 29.94570456 -0.38083175 31.95776367 -0.39111328 C35.81447677 -0.40961298 39.67060663 -0.40740801 43.52734375 -0.3984375 C44.73051743 -0.40451019 45.9336911 -0.41058289 47.17332458 -0.4168396 C48.84504478 -0.40265488 48.84504478 -0.40265488 50.55053711 -0.38818359 C52.02374672 -0.38460342 52.02374672 -0.38460342 53.52671814 -0.38095093 C56 0 56 0 57.81632996 1.18466187 C59.44647961 3.68474442 59.38092882 5.45748503 59.38818359 8.43359375 C59.39764008 9.54484619 59.40709656 10.65609863 59.4168396 11.80102539 C59.40773056 13.60108032 59.40773056 13.60108032 59.3984375 15.4375 C59.40130768 16.66911865 59.40417786 17.9007373 59.40713501 19.16967773 C59.40970158 22.44347957 59.3976161 25.71685537 59.38085938 28.99060059 C59.37500553 30.99810385 59.38083795 33.00521369 59.39111328 35.01269531 C59.4096098 38.86281695 59.40740992 42.71235434 59.3984375 46.5625 C59.40451019 47.76253662 59.41058289 48.96257324 59.4168396 50.19897461 C59.40738312 51.31022705 59.39792664 52.42147949 59.38818359 53.56640625 C59.38579681 54.54552979 59.38341003 55.52465332 59.38095093 56.53344727 C59 59 59 59 57.6991272 60.82128906 C54.85402202 62.79498273 51.63963839 62.3086563 48.3125 62.1875 C47.61060547 62.17396484 46.90871094 62.16042969 46.18554688 62.14648438 C44.45670171 62.11120182 42.72825235 62.05739583 41 62 C41.02320313 63.19238281 41.04640625 64.38476562 41.0703125 65.61328125 C41.08907178 67.17968124 41.10727181 68.746088 41.125 70.3125 C41.14175781 71.09818359 41.15851563 71.88386719 41.17578125 72.69335938 C41.18222656 73.45068359 41.18867188 74.20800781 41.1953125 74.98828125 C41.20578613 75.68477783 41.21625977 76.38127441 41.22705078 77.09887695 C41 79 41 79 39 82 C36.04935852 82.2208564 33.31631769 82.28060989 30.375 82.1875 C29.57320313 82.17396484 28.77140625 82.16042969 27.9453125 82.14648438 C25.96325622 82.11109051 23.98154449 82.05728234 22 82 C22.03480469 83.19238281 22.06960938 84.38476562 22.10546875 85.61328125 C22.13360753 87.17967342 22.1609076 88.74608081 22.1875 90.3125 C22.22520508 91.49102539 22.22520508 91.49102539 22.26367188 92.69335938 C22.27333984 93.45068359 22.28300781 94.20800781 22.29296875 94.98828125 C22.3086792 95.68477783 22.32438965 96.38127441 22.34057617 97.09887695 C21.88731445 99.62901965 21.05207851 100.4865921 19 102 C16.18872957 102.21714241 13.6116655 102.28284276 10.8125 102.1875 C10.06291016 102.17396484 9.31332031 102.16042969 8.54101562 102.14648438 C6.69370233 102.11118539 4.84675934 102.05737917 3 102 C3.02320313 103.04800781 3.04640625 104.09601563 3.0703125 105.17578125 C3.08907303 106.55468037 3.10727293 107.9335872 3.125 109.3125 C3.14175781 110.00279297 3.15851563 110.69308594 3.17578125 111.40429688 C3.21217794 115.17135396 3.14378864 116.78431704 1 120 C-0.97119141 120.34057617 -0.97119141 120.34057617 -3.3515625 120.29296875 C-4.20234375 120.28330078 -5.053125 120.27363281 -5.9296875 120.26367188 C-6.81914062 120.23853516 -7.70859375 120.21339844 -8.625 120.1875 C-9.97078125 120.16719727 -9.97078125 120.16719727 -11.34375 120.14648438 C-13.56309789 120.11106925 -15.78125188 120.06168461 -18 120 C-17.97679687 121.12019531 -17.95359375 122.24039063 -17.9296875 123.39453125 C-17.91092763 124.86718084 -17.89272766 126.33983763 -17.875 127.8125 C-17.84986328 128.91948242 -17.84986328 128.91948242 -17.82421875 130.04882812 C-17.78925372 133.91246426 -17.80602445 135.70903668 -20 139 C-22.95064148 139.2208564 -25.68368231 139.28060989 -28.625 139.1875 C-29.42679688 139.17396484 -30.22859375 139.16042969 -31.0546875 139.14648438 C-33.03674378 139.11109051 -35.01845551 139.05728234 -37 139 C-36.98839844 140.27617187 -36.97679687 141.55234375 -36.96484375 142.8671875 C-36.95546583 144.53645687 -36.94636563 146.20572783 -36.9375 147.875 C-36.92912109 148.71675781 -36.92074219 149.55851563 -36.91210938 150.42578125 C-36.90888672 151.23144531 -36.90566406 152.03710938 -36.90234375 152.8671875 C-36.89710693 153.61081543 -36.89187012 154.35444336 -36.88647461 155.12060547 C-37 157 -37 157 -38 159 C-44.27 159 -50.54 159 -57 159 C-57 164.94 -57 170.88 -57 177 C-63.27 177 -69.54 177 -76 177 C-76 183.27 -76 189.54 -76 196 C-79.30994713 197.65497356 -82.99123 197.10084335 -86.625 197.0625 C-87.42679688 197.05798828 -88.22859375 197.05347656 -89.0546875 197.04882812 C-91.03649006 197.03703168 -93.01825433 197.01909605 -95 197 C-95 201.62 -95 206.24 -95 211 C-93.64003906 210.98839844 -92.28007812 210.97679687 -90.87890625 210.96484375 C-89.1067722 210.95546738 -87.33463667 210.94636702 -85.5625 210.9375 C-84.66466797 210.92912109 -83.76683594 210.92074219 -82.84179688 210.91210938 C-81.56079102 210.90727539 -81.56079102 210.90727539 -80.25390625 210.90234375 C-79.46314697 210.89710693 -78.6723877 210.89187012 -77.85766602 210.88647461 C-76 211 -76 211 -75 212 C-74.91314397 213.56172745 -74.89297781 215.12729344 -74.90234375 216.69140625 C-74.90556641 217.63564453 -74.90878906 218.57988281 -74.91210938 219.55273438 C-74.92048828 220.54595703 -74.92886719 221.53917969 -74.9375 222.5625 C-74.94201172 223.55958984 -74.94652344 224.55667969 -74.95117188 225.58398438 C-74.96299977 228.05601487 -74.98093585 230.52801472 -75 233 C-69.06 233 -63.12 233 -57 233 C-55.42765102 236.14469795 -55.83703594 239.51217035 -55.83203125 242.96484375 C-55.82870285 243.75395645 -55.82537445 244.54306915 -55.82194519 245.35609436 C-55.81687902 247.02637142 -55.81453677 248.69665862 -55.81469727 250.36694336 C-55.81251168 252.92383485 -55.79435554 255.48029432 -55.77539062 258.03710938 C-55.77245648 259.65885269 -55.77047182 261.28059805 -55.76953125 262.90234375 C-55.76234573 263.66804184 -55.75516022 264.43373993 -55.74775696 265.22264099 C-55.76413243 269.02327773 -55.83942224 270.75913335 -58 274 C-60.9446727 274.29161802 -63.67567344 274.39583274 -66.62109375 274.36328125 C-67.904645 274.36402901 -67.904645 274.36402901 -69.21412659 274.36479187 C-71.02566853 274.3624492 -72.83721358 274.35270934 -74.64868164 274.33618164 C-77.42298494 274.31262326 -80.19632547 274.3156148 -82.97070312 274.32226562 C-84.7291724 274.31668782 -86.48763763 274.3095773 -88.24609375 274.30078125 C-89.07741318 274.30169266 -89.9087326 274.30260406 -90.76524353 274.30354309 C-94.67927838 274.25534866 -96.67148903 274.21900731 -100 272 C-100.2208564 269.04935852 -100.28060989 266.31631769 -100.1875 263.375 C-100.17396484 262.57320313 -100.16042969 261.77140625 -100.14648438 260.9453125 C-100.11109051 258.96325622 -100.05728234 256.98154449 -100 255 C-101.71098877 255.01571045 -101.71098877 255.01571045 -103.45654297 255.03173828 C-107.67949294 255.06787717 -111.90242919 255.09087812 -116.12548828 255.10986328 C-117.95493873 255.11993484 -119.78437303 255.13359276 -121.61376953 255.15087891 C-124.23994934 255.17507677 -126.86591675 255.18647132 -129.4921875 255.1953125 C-130.31306854 255.20563507 -131.13394958 255.21595764 -131.97970581 255.22659302 C-133.98789142 255.22699184 -135.99555382 255.1224954 -138 255 C-140 253 -140 253 -140.1953125 249.3046875 C-140.182009 247.82799892 -140.15814835 246.35137642 -140.125 244.875 C-140.11597656 244.12089844 -140.10695313 243.36679687 -140.09765625 242.58984375 C-140.0740687 240.72642746 -140.03819719 238.86317407 -140 237 C-144.29 237 -148.58 237 -153 237 C-152.96519531 238.12019531 -152.93039063 239.24039063 -152.89453125 240.39453125 C-152.86639161 241.86717251 -152.83909163 243.33982998 -152.8125 244.8125 C-152.78736328 245.55048828 -152.76222656 246.28847656 -152.73632812 247.04882812 C-152.66176858 252.54138113 -152.66176858 252.54138113 -154.26757812 254.71875 C-156.37407877 256.27665803 -157.41699589 256.35149633 -160.01171875 256.29296875 C-160.76904297 256.28330078 -161.52636719 256.27363281 -162.30664062 256.26367188 C-163.09232422 256.23853516 -163.87800781 256.21339844 -164.6875 256.1875 C-165.48478516 256.17396484 -166.28207031 256.16042969 -167.10351562 256.14648438 C-169.06929967 256.11117089 -171.03473582 256.05736447 -173 256 C-172.97679687 257.13179688 -172.95359375 258.26359375 -172.9296875 259.4296875 C-172.91093099 260.91145175 -172.89273066 262.39322312 -172.875 263.875 C-172.84986328 264.99455078 -172.84986328 264.99455078 -172.82421875 266.13671875 C-172.8066041 268.09194461 -172.89679811 270.04742021 -173 272 C-175 274 -175 274 -178.9140625 274.1953125 C-180.48449351 274.18200376 -182.05486221 274.15813602 -183.625 274.125 C-184.82769531 274.11146484 -184.82769531 274.11146484 -186.0546875 274.09765625 C-188.03658523 274.07406223 -190.01832981 274.03819065 -192 274 C-191.98428955 275.61225464 -191.98428955 275.61225464 -191.96826172 277.25708008 C-191.93207221 281.24337435 -191.90910337 285.22965408 -191.89013672 289.21606445 C-191.88007674 290.94167523 -191.86642724 292.66726895 -191.84912109 294.39282227 C-191.82487246 296.8726014 -191.81351699 299.35215523 -191.8046875 301.83203125 C-191.79436493 302.60400345 -191.78404236 303.37597565 -191.77340698 304.17134094 C-191.77260578 307.99281476 -191.82757405 309.74136107 -194 313 C-196.42222595 313.38095093 -196.42222595 313.38095093 -199.50366211 313.38818359 C-200.65503159 313.39764008 -201.80640106 313.40709656 -202.99266052 313.4168396 C-204.24160599 313.41076691 -205.49055145 313.40469421 -206.77734375 313.3984375 C-208.05476944 313.40130768 -209.33219513 313.40417786 -210.64833069 313.40713501 C-213.35464732 313.40918006 -216.06015585 313.40511953 -218.76635742 313.39111328 C-222.23462839 313.37403772 -225.70220209 313.38384936 -229.17044735 313.40183067 C-232.47693779 313.41528314 -235.78334421 313.40586113 -239.08984375 313.3984375 C-240.33676498 313.40451019 -241.58368622 313.41058289 -242.86839294 313.4168396 C-244.02291458 313.40738312 -245.17743622 313.39792664 -246.36694336 313.38818359 C-247.38461288 313.38579681 -248.40228241 313.38341003 -249.45079041 313.38095093 C-252 313 -252 313 -253.82780457 311.82206726 C-255.45631811 309.29069653 -255.38101932 307.46010029 -255.38818359 304.45874023 C-255.39764008 303.32423935 -255.40709656 302.18973846 -255.4168396 301.02085876 C-255.41076691 299.79581131 -255.40469421 298.57076385 -255.3984375 297.30859375 C-255.40130768 296.05240738 -255.40417786 294.79622101 -255.40713501 293.50196838 C-255.40917813 290.84450358 -255.40513529 288.18786456 -255.39111328 285.53051758 C-255.37400345 282.12158645 -255.38387451 278.71336295 -255.40183067 275.30445766 C-255.41526382 272.05581074 -255.4058658 268.80724989 -255.3984375 265.55859375 C-255.40754654 263.71798622 -255.40754654 263.71798622 -255.4168396 261.8401947 C-255.40738312 260.70884598 -255.39792664 259.57749725 -255.38818359 258.41186523 C-255.38579681 257.4127562 -255.38341003 256.41364716 -255.38095093 255.38426208 C-255.25523712 254.5974556 -255.12952332 253.81064911 -255 253 C-251.30841682 250.53894455 -248.53376446 250.74424207 -244.26953125 250.8046875 C-243.51911057 250.8075174 -242.76868988 250.81034729 -241.99552917 250.81326294 C-239.60102325 250.82444938 -237.20689269 250.84955072 -234.8125 250.875 C-233.18815645 250.88503181 -231.56380703 250.89415731 -229.93945312 250.90234375 C-225.959491 250.92438363 -221.97980912 250.9589026 -218 251 C-218.02320313 249.87980469 -218.04640625 248.75960937 -218.0703125 247.60546875 C-218.08907237 246.13281916 -218.10727234 244.66016237 -218.125 243.1875 C-218.14175781 242.44951172 -218.15851563 241.71152344 -218.17578125 240.95117188 C-218.21074628 237.08753574 -218.19397555 235.29096332 -216 232 C-214.02880859 231.65942383 -214.02880859 231.65942383 -211.6484375 231.70703125 C-210.79765625 231.71669922 -209.946875 231.72636719 -209.0703125 231.73632812 C-208.18085938 231.76146484 -207.29140625 231.78660156 -206.375 231.8125 C-205.4778125 231.82603516 -204.580625 231.83957031 -203.65625 231.85351562 C-201.43690211 231.88893075 -199.21874812 231.93831539 -197 232 C-197.02320313 230.72382813 -197.04640625 229.44765625 -197.0703125 228.1328125 C-197.08906829 226.4635475 -197.10726869 224.7942762 -197.125 223.125 C-197.14175781 222.28324219 -197.15851563 221.44148437 -197.17578125 220.57421875 C-197.18544922 219.36572266 -197.18544922 219.36572266 -197.1953125 218.1328125 C-197.21102295 217.01737061 -197.21102295 217.01737061 -197.22705078 215.87939453 C-197 214 -197 214 -195 212 C-192.0906442 211.85482256 -189.280054 211.81369204 -186.375 211.875 C-185.57320313 211.88402344 -184.77140625 211.89304687 -183.9453125 211.90234375 C-181.96341477 211.92593777 -179.98167019 211.96180935 -178 212 C-178 207.05 -178 202.1 -178 197 C-179.20398438 197.02320313 -180.40796875 197.04640625 -181.6484375 197.0703125 C-183.22395215 197.08906863 -184.79947348 197.10726899 -186.375 197.125 C-187.1690625 197.14175781 -187.963125 197.15851563 -188.78125 197.17578125 C-190.85492015 197.19335473 -192.92883241 197.10335168 -195 197 C-197 195 -197 195 -197.22705078 191.56005859 C-197.22673369 190.08948021 -197.21540987 188.61887858 -197.1953125 187.1484375 C-197.1924826 186.37440582 -197.18965271 185.60037415 -197.18673706 184.80288696 C-197.17552754 182.32676843 -197.15042203 179.8510095 -197.125 177.375 C-197.11497118 175.69792188 -197.10584516 174.02083811 -197.09765625 172.34375 C-197.07558574 168.22902777 -197.04105102 164.11457489 -197 160 C-197.84763916 160.02356567 -197.84763916 160.02356567 -198.71240234 160.04760742 C-201.26650023 160.10987045 -203.82043871 160.14896136 -206.375 160.1875 C-207.26445312 160.21263672 -208.15390625 160.23777344 -209.0703125 160.26367188 C-209.92109375 160.27333984 -210.771875 160.28300781 -211.6484375 160.29296875 C-212.82672119 160.31653442 -212.82672119 160.31653442 -214.02880859 160.34057617 C-214.67930176 160.22818604 -215.32979492 160.1157959 -216 160 C-218.63804353 156.04293471 -218.28741295 152.6190457 -218.265625 148.02734375 C-218.26849518 146.70906334 -218.26849518 146.70906334 -218.27142334 145.364151 C-218.27278385 143.50733148 -218.26909675 141.6505024 -218.26074219 139.79370117 C-218.25002796 136.94493365 -218.26064851 134.09679492 -218.2734375 131.24804688 C-218.27211613 129.4453111 -218.26955421 127.64257572 -218.265625 125.83984375 C-218.26967346 124.98462631 -218.27372192 124.12940887 -218.27789307 123.24827576 C-218.22992618 117.22992618 -218.22992618 117.22992618 -216 115 C-213.09424954 114.78771548 -210.28626071 114.69603905 -207.37890625 114.69921875 C-206.095355 114.69279106 -206.095355 114.69279106 -204.78587341 114.68623352 C-202.97436407 114.68048532 -201.16283164 114.67999356 -199.35131836 114.68432617 C-196.57691095 114.6874836 -193.80357214 114.66404259 -191.02929688 114.63867188 C-189.27083468 114.63639871 -187.51236961 114.63569547 -185.75390625 114.63671875 C-184.92258682 114.627509 -184.0912674 114.61829926 -183.23475647 114.60881042 C-177.46228444 114.65525694 -177.46228444 114.65525694 -175.2752533 116.28620911 C-173.09802182 119.21215291 -173.69347513 122.69305197 -173.8125 126.1875 C-173.83280273 127.31188477 -173.83280273 127.31188477 -173.85351562 128.45898438 C-173.88881461 130.30629767 -173.94262083 132.15324066 -174 134 C-172.80761719 133.97679687 -171.61523438 133.95359375 -170.38671875 133.9296875 C-168.82031876 133.91092822 -167.253912 133.89272819 -165.6875 133.875 C-164.90181641 133.85824219 -164.11613281 133.84148437 -163.30664062 133.82421875 C-162.54931641 133.81777344 -161.79199219 133.81132812 -161.01171875 133.8046875 C-160.31522217 133.79421387 -159.61872559 133.78374023 -158.90112305 133.77294922 C-157 134 -157 134 -154 136 C-153.65942383 137.97119141 -153.65942383 137.97119141 -153.70703125 140.3515625 C-153.71669922 141.20234375 -153.72636719 142.053125 -153.73632812 142.9296875 C-153.76146484 143.81914062 -153.78660156 144.70859375 -153.8125 145.625 C-153.83280273 146.97078125 -153.83280273 146.97078125 -153.85351562 148.34375 C-153.88892527 150.56275471 -153.94273346 152.78145176 -154 155 C-149.38 155 -144.76 155 -140 155 C-140.03480469 153.73542969 -140.06960937 152.47085938 -140.10546875 151.16796875 C-140.13360677 149.50782577 -140.16090691 147.84766844 -140.1875 146.1875 C-140.21263672 145.35412109 -140.23777344 144.52074219 -140.26367188 143.66210938 C-140.27333984 142.85966797 -140.28300781 142.05722656 -140.29296875 141.23046875 C-140.3086792 140.49207764 -140.32438965 139.75368652 -140.34057617 138.99291992 C-139.8948558 136.38473682 -139.13617396 135.53403096 -137 134 C-135.00708008 133.65942383 -135.00708008 133.65942383 -132.76953125 133.70703125 C-131.96708984 133.71669922 -131.16464844 133.72636719 -130.33789062 133.73632812 C-129.50451172 133.76146484 -128.67113281 133.78660156 -127.8125 133.8125 C-126.96751953 133.82603516 -126.12253906 133.83957031 -125.25195312 133.85351562 C-123.16769616 133.88884201 -121.08376723 133.94264861 -119 134 C-119.03480469 132.79601562 -119.06960938 131.59203125 -119.10546875 130.3515625 C-119.1336028 128.77605558 -119.16090337 127.20053362 -119.1875 125.625 C-119.21263672 124.8309375 -119.23777344 124.036875 -119.26367188 123.21875 C-119.29004405 121.14413852 -119.15486462 119.06899135 -119 117 C-115.20836973 114.47224649 -112.19125969 114.77556965 -107.8125 114.875 C-107.06291016 114.88402344 -106.31332031 114.89304687 -105.54101562 114.90234375 C-103.69387346 114.92587422 -101.84689588 114.96174439 -100 115 C-100.02320313 113.86820312 -100.04640625 112.73640625 -100.0703125 111.5703125 C-100.08906901 110.08854825 -100.10726934 108.60677688 -100.125 107.125 C-100.14175781 106.37863281 -100.15851563 105.63226563 -100.17578125 104.86328125 C-100.1933959 102.90805539 -100.10320189 100.95257979 -100 99 C-98 97 -98 97 -96.12060547 96.77294922 C-95.37697754 96.78342285 -94.63334961 96.79389648 -93.8671875 96.8046875 C-93.06152344 96.81113281 -92.25585938 96.81757813 -91.42578125 96.82421875 C-90.16314453 96.84935547 -90.16314453 96.84935547 -88.875 96.875 C-88.02550781 96.88402344 -87.17601562 96.89304687 -86.30078125 96.90234375 C-84.20040116 96.92594353 -82.10016556 96.96181517 -80 97 C-80.02320313 95.72382813 -80.04640625 94.44765625 -80.0703125 93.1328125 C-80.08906829 91.4635475 -80.10726869 89.7942762 -80.125 88.125 C-80.14175781 87.28324219 -80.15851563 86.44148438 -80.17578125 85.57421875 C-80.18222656 84.76855469 -80.18867188 83.96289062 -80.1953125 83.1328125 C-80.20578613 82.38918457 -80.21625977 81.64555664 -80.22705078 80.87939453 C-80 79 -80 79 -78 77 C-75.0906442 76.85482256 -72.280054 76.81369204 -69.375 76.875 C-68.57320312 76.88402344 -67.77140625 76.89304687 -66.9453125 76.90234375 C-64.96341477 76.92593777 -62.98167019 76.96180935 -61 77 C-61.02320313 75.72382813 -61.04640625 74.44765625 -61.0703125 73.1328125 C-61.08906829 71.4635475 -61.10726869 69.7942762 -61.125 68.125 C-61.14175781 67.28324219 -61.15851563 66.44148438 -61.17578125 65.57421875 C-61.18222656 64.76855469 -61.18867188 63.96289062 -61.1953125 63.1328125 C-61.20578613 62.38918457 -61.21625977 61.64555664 -61.22705078 60.87939453 C-61 59 -61 59 -59 57 C-56.0906442 56.85482256 -53.280054 56.81369204 -50.375 56.875 C-49.17230469 56.88853516 -49.17230469 56.88853516 -47.9453125 56.90234375 C-45.96341477 56.92593777 -43.98167019 56.96180935 -42 57 C-42.02320313 56.02417969 -42.04640625 55.04835937 -42.0703125 54.04296875 C-42.08835937 52.77066406 -42.10640625 51.49835938 -42.125 50.1875 C-42.14820313 48.92292969 -42.17140625 47.65835938 -42.1953125 46.35546875 C-42 43 -42 43 -40 40 C-37.04935852 39.7791436 -34.31631769 39.71939011 -31.375 39.8125 C-30.57320312 39.82603516 -29.77140625 39.83957031 -28.9453125 39.85351562 C-26.96325622 39.88890949 -24.98154449 39.94271766 -23 40 C-23.02320313 38.72382813 -23.04640625 37.44765625 -23.0703125 36.1328125 C-23.08906829 34.4635475 -23.10726869 32.7942762 -23.125 31.125 C-23.14175781 30.28324219 -23.15851563 29.44148438 -23.17578125 28.57421875 C-23.18222656 27.76855469 -23.18867188 26.96289062 -23.1953125 26.1328125 C-23.20578613 25.38918457 -23.21625977 24.64555664 -23.22705078 23.87939453 C-23 22 -23 22 -21 20 C-19.02880859 19.77294922 -19.02880859 19.77294922 -16.6484375 19.8046875 C-15.79765625 19.81113281 -14.946875 19.81757813 -14.0703125 19.82421875 C-12.73613281 19.84935547 -12.73613281 19.84935547 -11.375 19.875 C-10.02921875 19.88853516 -10.02921875 19.88853516 -8.65625 19.90234375 C-6.43723414 19.9259503 -4.21874923 19.9588769 -2 20 C-2.02320313 18.80761719 -2.04640625 17.61523438 -2.0703125 16.38671875 C-2.08907178 14.82031876 -2.10727181 13.253912 -2.125 11.6875 C-2.14175781 10.90181641 -2.15851563 10.11613281 -2.17578125 9.30664062 C-2.18222656 8.54931641 -2.18867188 7.79199219 -2.1953125 7.01171875 C-2.20578613 6.31522217 -2.21625977 5.61872559 -2.22705078 4.90112305 C-2 3 -2 3 0 0 Z " fill="#010101" transform="translate(393,132)"/>
<path d="M0 0 C2.34629822 -0.38095093 2.34629822 -0.38095093 5.32006836 -0.38818359 C6.43139633 -0.39764008 7.5427243 -0.40709656 8.68772888 -0.4168396 C10.49552574 -0.40773056 10.49552574 -0.40773056 12.33984375 -0.3984375 C14.18939415 -0.40274277 14.18939415 -0.40274277 16.0763092 -0.40713501 C19.35834471 -0.40970438 22.63995684 -0.39760162 25.92193604 -0.38085938 C27.93401682 -0.37501013 29.94570456 -0.38083175 31.95776367 -0.39111328 C35.81447677 -0.40961298 39.67060663 -0.40740801 43.52734375 -0.3984375 C44.73051743 -0.40451019 45.9336911 -0.41058289 47.17332458 -0.4168396 C48.84504478 -0.40265488 48.84504478 -0.40265488 50.55053711 -0.38818359 C52.02374672 -0.38460342 52.02374672 -0.38460342 53.52671814 -0.38095093 C56 0 56 0 57.81632996 1.18466187 C59.44647961 3.68474442 59.38092882 5.45748503 59.38818359 8.43359375 C59.39764008 9.54484619 59.40709656 10.65609863 59.4168396 11.80102539 C59.40773056 13.60108032 59.40773056 13.60108032 59.3984375 15.4375 C59.40130768 16.66911865 59.40417786 17.9007373 59.40713501 19.16967773 C59.40970158 22.44347957 59.3976161 25.71685537 59.38085938 28.99060059 C59.37500553 30.99810385 59.38083795 33.00521369 59.39111328 35.01269531 C59.4096098 38.86281695 59.40740992 42.71235434 59.3984375 46.5625 C59.40451019 47.76253662 59.41058289 48.96257324 59.4168396 50.19897461 C59.40738312 51.31022705 59.39792664 52.42147949 59.38818359 53.56640625 C59.38579681 54.54552979 59.38341003 55.52465332 59.38095093 56.53344727 C59 59 59 59 57.6991272 60.82128906 C54.85402202 62.79498273 51.63963839 62.3086563 48.3125 62.1875 C47.61060547 62.17396484 46.90871094 62.16042969 46.18554688 62.14648438 C44.45670171 62.11120182 42.72825235 62.05739583 41 62 C41.02320313 63.19238281 41.04640625 64.38476562 41.0703125 65.61328125 C41.08907178 67.17968124 41.10727181 68.746088 41.125 70.3125 C41.14175781 71.09818359 41.15851563 71.88386719 41.17578125 72.69335938 C41.18222656 73.45068359 41.18867188 74.20800781 41.1953125 74.98828125 C41.20578613 75.68477783 41.21625977 76.38127441 41.22705078 77.09887695 C41 79 41 79 39 82 C36.04935852 82.2208564 33.31631769 82.28060989 30.375 82.1875 C29.57320313 82.17396484 28.77140625 82.16042969 27.9453125 82.14648438 C25.96325622 82.11109051 23.98154449 82.05728234 22 82 C22.03480469 83.19238281 22.06960938 84.38476562 22.10546875 85.61328125 C22.13360753 87.17967342 22.1609076 88.74608081 22.1875 90.3125 C22.22520508 91.49102539 22.22520508 91.49102539 22.26367188 92.69335938 C22.27333984 93.45068359 22.28300781 94.20800781 22.29296875 94.98828125 C22.3086792 95.68477783 22.32438965 96.38127441 22.34057617 97.09887695 C21.88731445 99.62901965 21.05207851 100.4865921 19 102 C16.18872957 102.21714241 13.6116655 102.28284276 10.8125 102.1875 C10.06291016 102.17396484 9.31332031 102.16042969 8.54101562 102.14648438 C6.69370233 102.11118539 4.84675934 102.05737917 3 102 C3.02320313 103.04800781 3.04640625 104.09601563 3.0703125 105.17578125 C3.08907303 106.55468037 3.10727293 107.9335872 3.125 109.3125 C3.14175781 110.00279297 3.15851563 110.69308594 3.17578125 111.40429688 C3.21217794 115.17135396 3.14378864 116.78431704 1 120 C-0.97119141 120.34057617 -0.97119141 120.34057617 -3.3515625 120.29296875 C-4.20234375 120.28330078 -5.053125 120.27363281 -5.9296875 120.26367188 C-6.81914062 120.23853516 -7.70859375 120.21339844 -8.625 120.1875 C-9.97078125 120.16719727 -9.97078125 120.16719727 -11.34375 120.14648438 C-13.56309789 120.11106925 -15.78125188 120.06168461 -18 120 C-17.97679687 121.12019531 -17.95359375 122.24039063 -17.9296875 123.39453125 C-17.91092763 124.86718084 -17.89272766 126.33983763 -17.875 127.8125 C-17.84986328 128.91948242 -17.84986328 128.91948242 -17.82421875 130.04882812 C-17.78925372 133.91246426 -17.80602445 135.70903668 -20 139 C-22.95064148 139.2208564 -25.68368231 139.28060989 -28.625 139.1875 C-29.42679688 139.17396484 -30.22859375 139.16042969 -31.0546875 139.14648438 C-33.03674378 139.11109051 -35.01845551 139.05728234 -37 139 C-36.98839844 140.27617187 -36.97679687 141.55234375 -36.96484375 142.8671875 C-36.95546583 144.53645687 -36.94636563 146.20572783 -36.9375 147.875 C-36.92912109 148.71675781 -36.92074219 149.55851563 -36.91210938 150.42578125 C-36.90888672 151.23144531 -36.90566406 152.03710938 -36.90234375 152.8671875 C-36.89710693 153.61081543 -36.89187012 154.35444336 -36.88647461 155.12060547 C-37 157 -37 157 -38 159 C-44.27 159 -50.54 159 -57 159 C-57 164.94 -57 170.88 -57 177 C-63.27 177 -69.54 177 -76 177 C-76 183.27 -76 189.54 -76 196 C-79.30994713 197.65497356 -82.99123 197.10084335 -86.625 197.0625 C-87.42679688 197.05798828 -88.22859375 197.05347656 -89.0546875 197.04882812 C-91.03649006 197.03703168 -93.01825433 197.01909605 -95 197 C-95 201.62 -95 206.24 -95 211 C-93.64003906 210.98839844 -92.28007812 210.97679687 -90.87890625 210.96484375 C-89.1067722 210.95546738 -87.33463667 210.94636702 -85.5625 210.9375 C-84.66466797 210.92912109 -83.76683594 210.92074219 -82.84179688 210.91210938 C-81.56079102 210.90727539 -81.56079102 210.90727539 -80.25390625 210.90234375 C-79.46314697 210.89710693 -78.6723877 210.89187012 -77.85766602 210.88647461 C-76 211 -76 211 -75 212 C-74.91314397 213.56172745 -74.89297781 215.12729344 -74.90234375 216.69140625 C-74.90556641 217.63564453 -74.90878906 218.57988281 -74.91210938 219.55273438 C-74.92048828 220.54595703 -74.92886719 221.53917969 -74.9375 222.5625 C-74.94201172 223.55958984 -74.94652344 224.55667969 -74.95117188 225.58398438 C-74.96299977 228.05601487 -74.98093585 230.52801472 -75 233 C-69.06 233 -63.12 233 -57 233 C-55.42765102 236.14469795 -55.83703594 239.51217035 -55.83203125 242.96484375 C-55.82870285 243.75395645 -55.82537445 244.54306915 -55.82194519 245.35609436 C-55.81687902 247.02637142 -55.81453677 248.69665862 -55.81469727 250.36694336 C-55.81251168 252.92383485 -55.79435554 255.48029432 -55.77539062 258.03710938 C-55.77245648 259.65885269 -55.77047182 261.28059805 -55.76953125 262.90234375 C-55.76234573 263.66804184 -55.75516022 264.43373993 -55.74775696 265.22264099 C-55.76413243 269.02327773 -55.83942224 270.75913335 -58 274 C-60.9446727 274.29161802 -63.67567344 274.39583274 -66.62109375 274.36328125 C-67.904645 274.36402901 -67.904645 274.36402901 -69.21412659 274.36479187 C-71.02566853 274.3624492 -72.83721358 274.35270934 -74.64868164 274.33618164 C-77.42298494 274.31262326 -80.19632547 274.3156148 -82.97070312 274.32226562 C-84.7291724 274.31668782 -86.48763763 274.3095773 -88.24609375 274.30078125 C-89.07741318 274.30169266 -89.9087326 274.30260406 -90.76524353 274.30354309 C-94.67927838 274.25534866 -96.67148903 274.21900731 -100 272 C-100.2208564 269.04935852 -100.28060989 266.31631769 -100.1875 263.375 C-100.17396484 262.57320313 -100.16042969 261.77140625 -100.14648438 260.9453125 C-100.11109051 258.96325622 -100.05728234 256.98154449 -100 255 C-101.71098877 255.01571045 -101.71098877 255.01571045 -103.45654297 255.03173828 C-107.67949294 255.06787717 -111.90242919 255.09087812 -116.12548828 255.10986328 C-117.95493873 255.11993484 -119.78437303 255.13359276 -121.61376953 255.15087891 C-124.23994934 255.17507677 -126.86591675 255.18647132 -129.4921875 255.1953125 C-130.31306854 255.20563507 -131.13394958 255.21595764 -131.97970581 255.22659302 C-133.98789142 255.22699184 -135.99555382 255.1224954 -138 255 C-140 253 -140 253 -140.1953125 249.3046875 C-140.182009 247.82799892 -140.15814835 246.35137642 -140.125 244.875 C-140.11597656 244.12089844 -140.10695313 243.36679687 -140.09765625 242.58984375 C-140.0740687 240.72642746 -140.03819719 238.86317407 -140 237 C-144.29 237 -148.58 237 -153 237 C-152.96519531 238.12019531 -152.93039063 239.24039063 -152.89453125 240.39453125 C-152.86639161 241.86717251 -152.83909163 243.33982998 -152.8125 244.8125 C-152.78736328 245.55048828 -152.76222656 246.28847656 -152.73632812 247.04882812 C-152.66176858 252.54138113 -152.66176858 252.54138113 -154.26757812 254.71875 C-156.37407877 256.27665803 -157.41699589 256.35149633 -160.01171875 256.29296875 C-160.76904297 256.28330078 -161.52636719 256.27363281 -162.30664062 256.26367188 C-163.09232422 256.23853516 -163.87800781 256.21339844 -164.6875 256.1875 C-165.48478516 256.17396484 -166.28207031 256.16042969 -167.10351562 256.14648438 C-169.06929967 256.11117089 -171.03473582 256.05736447 -173 256 C-172.97679687 257.13179688 -172.95359375 258.26359375 -172.9296875 259.4296875 C-172.91093099 260.91145175 -172.89273066 262.39322312 -172.875 263.875 C-172.84986328 264.99455078 -172.84986328 264.99455078 -172.82421875 266.13671875 C-172.8066041 268.09194461 -172.89679811 270.04742021 -173 272 C-175 274 -175 274 -178.9140625 274.1953125 C-180.48449351 274.18200376 -182.05486221 274.15813602 -183.625 274.125 C-184.82769531 274.11146484 -184.82769531 274.11146484 -186.0546875 274.09765625 C-188.03658523 274.07406223 -190.01832981 274.03819065 -192 274 C-191.98428955 275.61225464 -191.98428955 275.61225464 -191.96826172 277.25708008 C-191.93207221 281.24337435 -191.90910337 285.22965408 -191.89013672 289.21606445 C-191.88007674 290.94167523 -191.86642724 292.66726895 -191.84912109 294.39282227 C-191.82487246 296.8726014 -191.81351699 299.35215523 -191.8046875 301.83203125 C-191.79436493 302.60400345 -191.78404236 303.37597565 -191.77340698 304.17134094 C-191.77260578 307.99281476 -191.82757405 309.74136107 -194 313 C-196.42222595 313.38095093 -196.42222595 313.38095093 -199.50366211 313.38818359 C-200.65503159 313.39764008 -201.80640106 313.40709656 -202.99266052 313.4168396 C-204.24160599 313.41076691 -205.49055145 313.40469421 -206.77734375 313.3984375 C-208.05476944 313.40130768 -209.33219513 313.40417786 -210.64833069 313.40713501 C-213.35464732 313.40918006 -216.06015585 313.40511953 -218.76635742 313.39111328 C-222.23462839 313.37403772 -225.70220209 313.38384936 -229.17044735 313.40183067 C-232.47693779 313.41528314 -235.78334421 313.40586113 -239.08984375 313.3984375 C-240.33676498 313.40451019 -241.58368622 313.41058289 -242.86839294 313.4168396 C-244.02291458 313.40738312 -245.17743622 313.39792664 -246.36694336 313.38818359 C-247.38461288 313.38579681 -248.40228241 313.38341003 -249.45079041 313.38095093 C-252 313 -252 313 -253.82780457 311.82206726 C-255.45631811 309.29069653 -255.38101932 307.46010029 -255.38818359 304.45874023 C-255.39764008 303.32423935 -255.40709656 302.18973846 -255.4168396 301.02085876 C-255.41076691 299.79581131 -255.40469421 298.57076385 -255.3984375 297.30859375 C-255.40130768 296.05240738 -255.40417786 294.79622101 -255.40713501 293.50196838 C-255.40917813 290.84450358 -255.40513529 288.18786456 -255.39111328 285.53051758 C-255.37400345 282.12158645 -255.38387451 278.71336295 -255.40183067 275.30445766 C-255.41526382 272.05581074 -255.4058658 268.80724989 -255.3984375 265.55859375 C-255.40754654 263.71798622 -255.40754654 263.71798622 -255.4168396 261.8401947 C-255.40738312 260.70884598 -255.39792664 259.57749725 -255.38818359 258.41186523 C-255.38579681 257.4127562 -255.38341003 256.41364716 -255.38095093 255.38426208 C-255.25523712 254.5974556 -255.12952332 253.81064911 -255 253 C-251.30841682 250.53894455 -248.53376446 250.74424207 -244.26953125 250.8046875 C-243.51911057 250.8075174 -242.76868988 250.81034729 -241.99552917 250.81326294 C-239.60102325 250.82444938 -237.20689269 250.84955072 -234.8125 250.875 C-233.18815645 250.88503181 -231.56380703 250.89415731 -229.93945312 250.90234375 C-225.959491 250.92438363 -221.97980912 250.9589026 -218 251 C-218.02320313 249.87980469 -218.04640625 248.75960937 -218.0703125 247.60546875 C-218.08907237 246.13281916 -218.10727234 244.66016237 -218.125 243.1875 C-218.14175781 242.44951172 -218.15851563 241.71152344 -218.17578125 240.95117188 C-218.21074628 237.08753574 -218.19397555 235.29096332 -216 232 C-214.02880859 231.65942383 -214.02880859 231.65942383 -211.6484375 231.70703125 C-210.79765625 231.71669922 -209.946875 231.72636719 -209.0703125 231.73632812 C-208.18085938 231.76146484 -207.29140625 231.78660156 -206.375 231.8125 C-205.4778125 231.82603516 -204.580625 231.83957031 -203.65625 231.85351562 C-201.43690211 231.88893075 -199.21874812 231.93831539 -197 232 C-197.02320313 230.72382813 -197.04640625 229.44765625 -197.0703125 228.1328125 C-197.08906829 226.4635475 -197.10726869 224.7942762 -197.125 223.125 C-197.14175781 222.28324219 -197.15851563 221.44148437 -197.17578125 220.57421875 C-197.18544922 219.36572266 -197.18544922 219.36572266 -197.1953125 218.1328125 C-197.21102295 217.01737061 -197.21102295 217.01737061 -197.22705078 215.87939453 C-197 214 -197 214 -195 212 C-192.0906442 211.85482256 -189.280054 211.81369204 -186.375 211.875 C-185.57320313 211.88402344 -184.77140625 211.89304687 -183.9453125 211.90234375 C-181.96341477 211.92593777 -179.98167019 211.96180935 -178 212 C-178 207.05 -178 202.1 -178 197 C-179.20398438 197.02320313 -180.40796875 197.04640625 -181.6484375 197.0703125 C-183.22395215 197.08906863 -184.79947348 197.10726899 -186.375 197.125 C-187.1690625 197.14175781 -187.963125 197.15851563 -188.78125 197.17578125 C-190.85492015 197.19335473 -192.92883241 197.10335168 -195 197 C-197 195 -197 195 -197.22705078 191.56005859 C-197.22673369 190.08948021 -197.21540987 188.61887858 -197.1953125 187.1484375 C-197.1924826 186.37440582 -197.18965271 185.60037415 -197.18673706 184.80288696 C-197.17552754 182.32676843 -197.15042203 179.8510095 -197.125 177.375 C-197.11497118 175.69792188 -197.10584516 174.02083811 -197.09765625 172.34375 C-197.07558574 168.22902777 -197.04105102 164.11457489 -197 160 C-197.84763916 160.02356567 -197.84763916 160.02356567 -198.71240234 160.04760742 C-201.26650023 160.10987045 -203.82043871 160.14896136 -206.375 160.1875 C-207.26445312 160.21263672 -208.15390625 160.23777344 -209.0703125 160.26367188 C-209.92109375 160.27333984 -210.771875 160.28300781 -211.6484375 160.29296875 C-212.82672119 160.31653442 -212.82672119 160.31653442 -214.02880859 160.34057617 C-214.67930176 160.22818604 -215.32979492 160.1157959 -216 160 C-218.63804353 156.04293471 -218.28741295 152.6190457 -218.265625 148.02734375 C-218.26849518 146.70906334 -218.26849518 146.70906334 -218.27142334 145.364151 C-218.27278385 143.50733148 -218.26909675 141.6505024 -218.26074219 139.79370117 C-218.25002796 136.94493365 -218.26064851 134.09679492 -218.2734375 131.24804688 C-218.27211613 129.4453111 -218.26955421 127.64257572 -218.265625 125.83984375 C-218.26967346 124.98462631 -218.27372192 124.12940887 -218.27789307 123.24827576 C-218.22992618 117.22992618 -218.22992618 117.22992618 -216 115 C-213.09424954 114.78771548 -210.28626071 114.69603905 -207.37890625 114.69921875 C-206.095355 114.69279106 -206.095355 114.69279106 -204.78587341 114.68623352 C-202.97436407 114.68048532 -201.16283164 114.67999356 -199.35131836 114.68432617 C-196.57691095 114.6874836 -193.80357214 114.66404259 -191.02929688 114.63867188 C-189.27083468 114.63639871 -187.51236961 114.63569547 -185.75390625 114.63671875 C-184.92258682 114.627509 -184.0912674 114.61829926 -183.23475647 114.60881042 C-177.46228444 114.65525694 -177.46228444 114.65525694 -175.2752533 116.28620911 C-173.09802182 119.21215291 -173.69347513 122.69305197 -173.8125 126.1875 C-173.83280273 127.31188477 -173.83280273 127.31188477 -173.85351562 128.45898438 C-173.88881461 130.30629767 -173.94262083 132.15324066 -174 134 C-172.80761719 133.97679687 -171.61523438 133.95359375 -170.38671875 133.9296875 C-168.82031876 133.91092822 -167.253912 133.89272819 -165.6875 133.875 C-164.90181641 133.85824219 -164.11613281 133.84148437 -163.30664062 133.82421875 C-162.54931641 133.81777344 -161.79199219 133.81132812 -161.01171875 133.8046875 C-160.31522217 133.79421387 -159.61872559 133.78374023 -158.90112305 133.77294922 C-157 134 -157 134 -154 136 C-153.65942383 137.97119141 -153.65942383 137.97119141 -153.70703125 140.3515625 C-153.71669922 141.20234375 -153.72636719 142.053125 -153.73632812 142.9296875 C-153.76146484 143.81914062 -153.78660156 144.70859375 -153.8125 145.625 C-153.83280273 146.97078125 -153.83280273 146.97078125 -153.85351562 148.34375 C-153.88892527 150.56275471 -153.94273346 152.78145176 -154 155 C-149.38 155 -144.76 155 -140 155 C-140.03480469 153.73542969 -140.06960937 152.47085938 -140.10546875 151.16796875 C-140.13360677 149.50782577 -140.16090691 147.84766844 -140.1875 146.1875 C-140.21263672 145.35412109 -140.23777344 144.52074219 -140.26367188 143.66210938 C-140.27333984 142.85966797 -140.28300781 142.05722656 -140.29296875 141.23046875 C-140.3086792 140.49207764 -140.32438965 139.75368652 -140.34057617 138.99291992 C-139.8948558 136.38473682 -139.13617396 135.53403096 -137 134 C-135.00708008 133.65942383 -135.00708008 133.65942383 -132.76953125 133.70703125 C-131.96708984 133.71669922 -131.16464844 133.72636719 -130.33789062 133.73632812 C-129.50451172 133.76146484 -128.67113281 133.78660156 -127.8125 133.8125 C-126.96751953 133.82603516 -126.12253906 133.83957031 -125.25195312 133.85351562 C-123.16769616 133.88884201 -121.08376723 133.94264861 -119 134 C-119.03480469 132.79601562 -119.06960938 131.59203125 -119.10546875 130.3515625 C-119.1336028 128.77605558 -119.16090337 127.20053362 -119.1875 125.625 C-119.21263672 124.8309375 -119.23777344 124.036875 -119.26367188 123.21875 C-119.29004405 121.14413852 -119.15486462 119.06899135 -119 117 C-115.20836973 114.47224649 -112.19125969 114.77556965 -107.8125 114.875 C-107.06291016 114.88402344 -106.31332031 114.89304687 -105.54101562 114.90234375 C-103.69387346 114.92587422 -101.84689588 114.96174439 -100 115 C-100.02320313 113.86820312 -100.04640625 112.73640625 -100.0703125 111.5703125 C-100.08906901 110.08854825 -100.10726934 108.60677688 -100.125 107.125 C-100.14175781 106.37863281 -100.15851563 105.63226563 -100.17578125 104.86328125 C-100.1933959 102.90805539 -100.10320189 100.95257979 -100 99 C-98 97 -98 97 -96.12060547 96.77294922 C-95.37697754 96.78342285 -94.63334961 96.79389648 -93.8671875 96.8046875 C-93.06152344 96.81113281 -92.25585938 96.81757813 -91.42578125 96.82421875 C-90.16314453 96.84935547 -90.16314453 96.84935547 -88.875 96.875 C-88.02550781 96.88402344 -87.17601562 96.89304687 -86.30078125 96.90234375 C-84.20040116 96.92594353 -82.10016556 96.96181517 -80 97 C-80.02320313 95.72382813 -80.04640625 94.44765625 -80.0703125 93.1328125 C-80.08906829 91.4635475 -80.10726869 89.7942762 -80.125 88.125 C-80.14175781 87.28324219 -80.15851563 86.44148438 -80.17578125 85.57421875 C-80.18222656 84.76855469 -80.18867188 83.96289062 -80.1953125 83.1328125 C-80.20578613 82.38918457 -80.21625977 81.64555664 -80.22705078 80.87939453 C-80 79 -80 79 -78 77 C-75.0906442 76.85482256 -72.280054 76.81369204 -69.375 76.875 C-68.57320312 76.88402344 -67.77140625 76.89304687 -66.9453125 76.90234375 C-64.96341477 76.92593777 -62.98167019 76.96180935 -61 77 C-61.02320313 75.72382813 -61.04640625 74.44765625 -61.0703125 73.1328125 C-61.08906829 71.4635475 -61.10726869 69.7942762 -61.125 68.125 C-61.14175781 67.28324219 -61.15851563 66.44148438 -61.17578125 65.57421875 C-61.18222656 64.76855469 -61.18867188 63.96289062 -61.1953125 63.1328125 C-61.20578613 62.38918457 -61.21625977 61.64555664 -61.22705078 60.87939453 C-61 59 -61 59 -59 57 C-56.0906442 56.85482256 -53.280054 56.81369204 -50.375 56.875 C-49.17230469 56.88853516 -49.17230469 56.88853516 -47.9453125 56.90234375 C-45.96341477 56.92593777 -43.98167019 56.96180935 -42 57 C-42.02320313 56.02417969 -42.04640625 55.04835937 -42.0703125 54.04296875 C-42.08835937 52.77066406 -42.10640625 51.49835938 -42.125 50.1875 C-42.14820313 48.92292969 -42.17140625 47.65835938 -42.1953125 46.35546875 C-42 43 -42 43 -40 40 C-37.04935852 39.7791436 -34.31631769 39.71939011 -31.375 39.8125 C-30.57320312 39.82603516 -29.77140625 39.83957031 -28.9453125 39.85351562 C-26.96325622 39.88890949 -24.98154449 39.94271766 -23 40 C-23.02320313 38.72382813 -23.04640625 37.44765625 -23.0703125 36.1328125 C-23.08906829 34.4635475 -23.10726869 32.7942762 -23.125 31.125 C-23.14175781 30.28324219 -23.15851563 29.44148438 -23.17578125 28.57421875 C-23.18222656 27.76855469 -23.18867188 26.96289062 -23.1953125 26.1328125 C-23.20578613 25.38918457 -23.21625977 24.64555664 -23.22705078 23.87939453 C-23 22 -23 22 -21 20 C-19.02880859 19.77294922 -19.02880859 19.77294922 -16.6484375 19.8046875 C-15.79765625 19.81113281 -14.946875 19.81757813 -14.0703125 19.82421875 C-12.73613281 19.84935547 -12.73613281 19.84935547 -11.375 19.875 C-10.02921875 19.88853516 -10.02921875 19.88853516 -8.65625 19.90234375 C-6.43723414 19.9259503 -4.21874923 19.9588769 -2 20 C-2.02320313 18.80761719 -2.04640625 17.61523438 -2.0703125 16.38671875 C-2.08907178 14.82031876 -2.10727181 13.253912 -2.125 11.6875 C-2.14175781 10.90181641 -2.15851563 10.11613281 -2.17578125 9.30664062 C-2.18222656 8.54931641 -2.18867188 7.79199219 -2.1953125 7.01171875 C-2.20578613 6.31522217 -2.21625977 5.61872559 -2.22705078 4.90112305 C-2 3 -2 3 0 0 Z M4 6 C3.67 11.94 3.34 17.88 3 24 C1.45049732 25.54950268 -0.09990594 25.21655193 -2.25390625 25.31640625 C-3.10791016 25.35830078 -3.96191406 25.40019531 -4.84179688 25.44335938 C-6.18854492 25.50233398 -6.18854492 25.50233398 -7.5625 25.5625 C-8.46419922 25.60568359 -9.36589844 25.64886719 -10.29492188 25.69335938 C-12.52975156 25.79977984 -14.76485486 25.90042481 -17 26 C-17.33 31.94 -17.66 37.88 -18 44 C-21.171738 45.585869 -24.63513822 45.37866445 -28.125 45.5625 C-28.87910156 45.60568359 -29.63320313 45.64886719 -30.41015625 45.69335938 C-32.27321888 45.7994832 -34.13658524 45.90025001 -36 46 C-36.06058594 46.98742187 -36.12117187 47.97484375 -36.18359375 48.9921875 C-36.26738281 50.27351563 -36.35117187 51.55484375 -36.4375 52.875 C-36.55931641 54.78925781 -36.55931641 54.78925781 -36.68359375 56.7421875 C-37 60 -37 60 -38 62 C-46.415 62.495 -46.415 62.495 -55 63 C-55 69.27 -55 75.54 -55 82 C-61.27 82.33 -67.54 82.66 -74 83 C-74.33 89.27 -74.66 95.54 -75 102 C-81.27 102.33 -87.54 102.66 -94 103 C-94.28884086 107.8461589 -94.28884086 107.8461589 -94.56811523 112.69287109 C-94.88888889 117.77777778 -94.88888889 117.77777778 -96 120 C-104.415 120.495 -104.415 120.495 -113 121 C-113.33 126.61 -113.66 132.22 -114 138 C-116.23647631 139.11823815 -117.64891529 139.19396061 -120.1328125 139.31640625 C-120.85871582 139.35451416 -121.58461914 139.39262207 -122.33251953 139.43188477 C-123.25403809 139.47498779 -124.17555664 139.51809082 -125.125 139.5625 C-129.518125 139.7790625 -129.518125 139.7790625 -134 140 C-134.33 146.6 -134.66 153.2 -135 160 C-142.92 160 -150.84 160 -159 160 C-159.33 153.4 -159.66 146.8 -160 140 C-166.27 139.67 -172.54 139.34 -179 139 C-179.495 130.09 -179.495 130.09 -180 121 C-190.56 121 -201.12 121 -212 121 C-212 131.89 -212 142.78 -212 154 C-205.79234728 154.28922373 -205.79234728 154.28922373 -199.58422852 154.56811523 C-198.81522217 154.60622314 -198.04621582 154.64433105 -197.25390625 154.68359375 C-196.06776733 154.73858032 -196.06776733 154.73858032 -194.85766602 154.79467773 C-193 155 -193 155 -192 156 C-191.84003834 158.59153107 -191.74061303 161.1595202 -191.68359375 163.75390625 C-191.66281265 164.52935287 -191.64203156 165.3047995 -191.62062073 166.10374451 C-191.55504198 168.58990308 -191.49620201 171.07617045 -191.4375 173.5625 C-191.39432267 175.24415204 -191.35070864 176.92579294 -191.30664062 178.60742188 C-191.19852719 182.7381712 -191.09951669 186.86899867 -191 191 C-182.585 191.495 -182.585 191.495 -174 192 C-172.74751498 194.50497004 -172.88625594 196.20853274 -172.90234375 199.0078125 C-172.90717773 200.48701172 -172.90717773 200.48701172 -172.91210938 201.99609375 C-172.92467773 203.54490234 -172.92467773 203.54490234 -172.9375 205.125 C-172.94201172 206.16527344 -172.94652344 207.20554687 -172.95117188 208.27734375 C-172.96298033 210.85158687 -172.98091615 213.42580053 -173 216 C-179.27 216.33 -185.54 216.66 -192 217 C-192.33 223.93 -192.66 230.86 -193 238 C-199.27 238 -205.54 238 -212 238 C-212.28888213 243.17527585 -212.28888213 243.17527585 -212.56811523 248.35107422 C-212.88888889 253.77777778 -212.88888889 253.77777778 -214 256 C-231.325 256.495 -231.325 256.495 -249 257 C-249 273.5 -249 290 -249 307 C-232.17 307 -215.34 307 -198 307 C-197.67 294.46 -197.34 281.92 -197 269 C-190.73 269 -184.46 269 -178 269 C-177.67 263.06 -177.34 257.12 -177 251 C-171.06 250.67 -165.12 250.34 -159 250 C-158.67 244.39 -158.34 238.78 -158 233 C-150.41 232.67 -142.82 232.34 -135 232 C-134.67 237.61 -134.34 243.22 -134 249 C-130.02839844 249.09087891 -130.02839844 249.09087891 -125.9765625 249.18359375 C-123.41826465 249.24536422 -120.86001189 249.30875975 -118.30175781 249.37231445 C-116.52087397 249.4156833 -114.73994802 249.45735694 -112.95898438 249.49731445 C-110.40221452 249.5549699 -107.84565702 249.6186777 -105.2890625 249.68359375 C-104.49005524 249.70030624 -103.69104797 249.71701874 -102.86782837 249.73423767 C-97.22774341 249.88612829 -97.22774341 249.88612829 -95 251 C-94.67 256.61 -94.34 262.22 -94 268 C-83.44 268 -72.88 268 -62 268 C-62 258.1 -62 248.2 -62 238 C-67.22011328 237.75040254 -67.22011328 237.75040254 -72.44116211 237.52197266 C-74.2994481 237.41972413 -76.15110827 237.21279319 -78 237 C-79.11823815 234.76352369 -79.19396061 233.35108471 -79.31640625 230.8671875 C-79.35451416 230.14128418 -79.39262207 229.41538086 -79.43188477 228.66748047 C-79.47498779 227.74596191 -79.51809082 226.82444336 -79.5625 225.875 C-79.7790625 221.481875 -79.7790625 221.481875 -80 217 C-89.9 216.505 -89.9 216.505 -100 216 C-100 208.08 -100 200.16 -100 192 C-93.4 192 -86.8 192 -80 192 C-80 185.73 -80 179.46 -80 173 C-73.73 173 -67.46 173 -61 173 C-61 167.06 -61 161.12 -61 155 C-54.73 155 -48.46 155 -42 155 C-42 148.07 -42 141.14 -42 134 C-35.73 134 -29.46 134 -23 134 C-22.67 127.73 -22.34 121.46 -22 115 C-15.73 114.67 -9.46 114.34 -3 114 C-2.71082605 108.7796934 -2.71082605 108.7796934 -2.43188477 103.55883789 C-2.11111111 98.11111111 -2.11111111 98.11111111 -1 97 C1.85877909 96.76298761 4.69883297 96.57780818 7.5625 96.4375 C8.36880859 96.39431641 9.17511719 96.35113281 10.00585938 96.30664062 C12.00368805 96.20024738 14.0018207 96.09959112 16 96 C16.06058594 94.79601562 16.12117188 93.59203125 16.18359375 92.3515625 C16.26799732 90.77602923 16.35264541 89.20050904 16.4375 87.625 C16.49647461 86.43390625 16.49647461 86.43390625 16.55664062 85.21875 C16.88671875 79.2265625 16.88671875 79.2265625 18 77 C26.415 76.505 26.415 76.505 35 76 C35.33 69.73 35.66 63.46 36 57 C44.415 56.505 44.415 56.505 53 56 C53 39.5 53 23 53 6 C36.83 6 20.66 6 4 6 Z " fill="#D6D6D6" transform="translate(393,132)"/>
<path d="M0 0 C5.94 0 11.88 0 18 0 C18 1.32 18 2.64 18 4 C13.38 4 8.76 4 4 4 C4 10.93 4 17.86 4 25 C-2.27 25 -8.54 25 -15 25 C-15 30.94 -15 36.88 -15 43 C-21.27 43 -27.54 43 -34 43 C-34 49.27 -34 55.54 -34 62 C-37.30994713 63.65497356 -40.99123 63.10084335 -44.625 63.0625 C-45.82769531 63.05573242 -45.82769531 63.05573242 -47.0546875 63.04882812 C-49.03649006 63.03703168 -51.01825433 63.01909605 -53 63 C-53 67.62 -53 72.24 -53 77 C-51.64003906 76.98839844 -50.28007812 76.97679687 -48.87890625 76.96484375 C-47.1067722 76.95546738 -45.33463667 76.94636702 -43.5625 76.9375 C-42.21575195 76.92493164 -42.21575195 76.92493164 -40.84179688 76.91210938 C-39.98779297 76.90888672 -39.13378906 76.90566406 -38.25390625 76.90234375 C-37.46314697 76.89710693 -36.6723877 76.89187012 -35.85766602 76.88647461 C-34 77 -34 77 -33 78 C-32.91314397 79.56172745 -32.89297781 81.12729344 -32.90234375 82.69140625 C-32.90717773 84.10776367 -32.90717773 84.10776367 -32.91210938 85.55273438 C-32.92467773 87.04256836 -32.92467773 87.04256836 -32.9375 88.5625 C-32.94201172 89.55958984 -32.94652344 90.55667969 -32.95117188 91.58398438 C-32.96299977 94.05601487 -32.98093585 96.52801472 -33 99 C-27.06 99 -21.12 99 -15 99 C-13.42765102 102.14469795 -13.83703594 105.51217035 -13.83203125 108.96484375 C-13.82870285 109.75395645 -13.82537445 110.54306915 -13.82194519 111.35609436 C-13.81687902 113.02637142 -13.81453677 114.69665862 -13.81469727 116.36694336 C-13.81251168 118.92383485 -13.79435554 121.48029432 -13.77539062 124.03710938 C-13.77245648 125.65885269 -13.77047182 127.28059805 -13.76953125 128.90234375 C-13.76234573 129.66804184 -13.75516022 130.43373993 -13.74775696 131.22264099 C-13.76413243 135.02327773 -13.83942224 136.75913335 -16 140 C-18.9446727 140.29161802 -21.67567344 140.39583274 -24.62109375 140.36328125 C-25.904645 140.36402901 -25.904645 140.36402901 -27.21412659 140.36479187 C-29.02566853 140.3624492 -30.83721358 140.35270934 -32.64868164 140.33618164 C-35.42298494 140.31262326 -38.19632547 140.3156148 -40.97070312 140.32226562 C-42.7291724 140.31668782 -44.48763763 140.3095773 -46.24609375 140.30078125 C-47.07741318 140.30169266 -47.9087326 140.30260406 -48.76524353 140.30354309 C-52.67927838 140.25534866 -54.67148903 140.21900731 -58 138 C-58.2208564 135.04935852 -58.28060989 132.31631769 -58.1875 129.375 C-58.16719727 128.17230469 -58.16719727 128.17230469 -58.14648438 126.9453125 C-58.11109051 124.96325622 -58.05728234 122.98154449 -58 121 C-59.71098877 121.01571045 -59.71098877 121.01571045 -61.45654297 121.03173828 C-65.67949294 121.06787717 -69.90242919 121.09087812 -74.12548828 121.10986328 C-75.95493873 121.11993484 -77.78437303 121.13359276 -79.61376953 121.15087891 C-82.23994934 121.17507677 -84.86591675 121.18647132 -87.4921875 121.1953125 C-88.31306854 121.20563507 -89.13394958 121.21595764 -89.97970581 121.22659302 C-91.98789142 121.22699184 -93.99555382 121.1224954 -96 121 C-98 119 -98 119 -98.1953125 115.3046875 C-98.182009 113.82799892 -98.15814835 112.35137642 -98.125 110.875 C-98.11597656 110.12089844 -98.10695312 109.36679687 -98.09765625 108.58984375 C-98.0740687 106.72642746 -98.03819719 104.86317407 -98 103 C-102.29 103 -106.58 103 -111 103 C-110.94779297 104.68029297 -110.94779297 104.68029297 -110.89453125 106.39453125 C-110.86639161 107.86717251 -110.83909163 109.33982998 -110.8125 110.8125 C-110.78736328 111.55048828 -110.76222656 112.28847656 -110.73632812 113.04882812 C-110.66176858 118.54138113 -110.66176858 118.54138113 -112.26757812 120.71875 C-114.37407877 122.27665803 -115.41699589 122.35149633 -118.01171875 122.29296875 C-118.76904297 122.28330078 -119.52636719 122.27363281 -120.30664062 122.26367188 C-121.09232422 122.23853516 -121.87800781 122.21339844 -122.6875 122.1875 C-123.88342773 122.16719727 -123.88342773 122.16719727 -125.10351562 122.14648438 C-127.06929967 122.11117089 -129.03473582 122.05736447 -131 122 C-130.97679687 123.13179688 -130.95359375 124.26359375 -130.9296875 125.4296875 C-130.91093099 126.91145175 -130.89273066 128.39322312 -130.875 129.875 C-130.85824219 130.62136719 -130.84148437 131.36773437 -130.82421875 132.13671875 C-130.8066041 134.09194461 -130.89679811 136.04742021 -131 138 C-133 140 -133 140 -136.9140625 140.1953125 C-138.48449351 140.18200376 -140.05486221 140.15813602 -141.625 140.125 C-142.42679688 140.11597656 -143.22859375 140.10695313 -144.0546875 140.09765625 C-146.03658523 140.07406223 -148.01832981 140.03819065 -150 140 C-149.99476318 141.08007324 -149.98952637 142.16014648 -149.98413086 143.27294922 C-149.96605892 147.27228978 -149.95455993 151.27162672 -149.94506836 155.27099609 C-149.94003318 157.00342414 -149.93320468 158.73584792 -149.92456055 160.46826172 C-149.91245935 162.95541433 -149.90676362 165.44251087 -149.90234375 167.9296875 C-149.89718246 168.70682098 -149.89202118 169.48395447 -149.88670349 170.28463745 C-149.88612829 175.77225659 -149.88612829 175.77225659 -151 178 C-153.64 178 -156.28 178 -159 178 C-159 177.01 -159 176.02 -159 175 C-157.68 174.67 -156.36 174.34 -155 174 C-155 161.13 -155 148.26 -155 135 C-148.73 135 -142.46 135 -136 135 C-136.03957769 129.12116997 -136.03957769 129.12116997 -136.09008789 123.24243164 C-136.09258545 122.51403076 -136.09508301 121.78562988 -136.09765625 121.03515625 C-136.10551147 119.91185913 -136.10551147 119.91185913 -136.11352539 118.76586914 C-136 117 -136 117 -135 116 C-133.65732587 115.91368126 -132.31025678 115.89293527 -130.96484375 115.90234375 C-130.15595703 115.90556641 -129.34707031 115.90878906 -128.51367188 115.91210938 C-127.66353516 115.92048828 -126.81339844 115.92886719 -125.9375 115.9375 C-125.08349609 115.94201172 -124.22949219 115.94652344 -123.34960938 115.95117188 C-121.23304337 115.96299627 -119.11651315 115.98093231 -117 116 C-117.01160156 114.78441406 -117.02320313 113.56882812 -117.03515625 112.31640625 C-117.04453278 110.73177236 -117.05363313 109.14713682 -117.0625 107.5625 C-117.07087891 106.76005859 -117.07925781 105.95761719 -117.08789062 105.13085938 C-117.0965143 103.08704779 -117.0522815 101.04316098 -117 99 C-116 98 -116 98 -113.77514648 97.88647461 C-112.33764038 97.89432983 -112.33764038 97.89432983 -110.87109375 97.90234375 C-109.83662109 97.90556641 -108.80214844 97.90878906 -107.73632812 97.91210938 C-106.64771484 97.92048828 -105.55910156 97.92886719 -104.4375 97.9375 C-102.7987793 97.94426758 -102.7987793 97.94426758 -101.12695312 97.95117188 C-98.41791505 97.96300174 -95.70898401 97.97948457 -93 98 C-91.46733418 101.06533164 -91.89723529 104.26754272 -91.9375 107.625 C-91.94201172 108.33140625 -91.94652344 109.0378125 -91.95117188 109.765625 C-91.96296125 111.51045275 -91.98089676 113.255237 -92 115 C-90.34230591 114.98428955 -90.34230591 114.98428955 -88.65112305 114.96826172 C-84.55301144 114.93207593 -80.45491397 114.90910471 -76.35668945 114.89013672 C-74.58257676 114.88007589 -72.80848065 114.86642578 -71.03442383 114.84912109 C-68.48514716 114.82487622 -65.93608963 114.81351782 -63.38671875 114.8046875 C-62.59287277 114.79436493 -61.79902679 114.78404236 -60.98112488 114.77340698 C-57.11776957 114.7726189 -55.29160554 114.80559631 -52 117 C-51.77787246 119.96762397 -51.71962971 122.66904015 -51.8125 125.625 C-51.874375 128.38875 -51.93625 131.1525 -52 134 C-41.44 134 -30.88 134 -20 134 C-20 124.1 -20 114.2 -20 104 C-25.17601141 104.1185577 -25.17601141 104.1185577 -30.35107422 104.27026367 C-32.236076 104.29217134 -34.12076763 104.14898777 -36 104 C-38.06723714 100.89914429 -38.24497423 100.27068319 -38.1953125 96.76953125 C-38.18886719 95.96708984 -38.18242187 95.16464844 -38.17578125 94.33789062 C-38.15064453 93.08782227 -38.15064453 93.08782227 -38.125 91.8125 C-38.11597656 90.96751953 -38.10695313 90.12253906 -38.09765625 89.25195312 C-38.07410703 87.16784757 -38.03823647 85.08388783 -38 83 C-39.27617187 83.01160156 -40.55234375 83.02320313 -41.8671875 83.03515625 C-43.53645687 83.04453417 -45.20572783 83.05363437 -46.875 83.0625 C-47.71675781 83.07087891 -48.55851562 83.07925781 -49.42578125 83.08789062 C-50.23144531 83.09111328 -51.03710938 83.09433594 -51.8671875 83.09765625 C-52.98262939 83.10551147 -52.98262939 83.10551147 -54.12060547 83.11352539 C-56 83 -56 83 -58 82 C-58 74.08 -58 66.16 -58 58 C-51.4 58 -44.8 58 -38 58 C-38 51.73 -38 45.46 -38 39 C-31.73 39 -25.46 39 -19 39 C-19 33.06 -19 27.12 -19 21 C-12.73 21 -6.46 21 0 21 C0 14.07 0 7.14 0 0 Z " fill="#D4D4D4" transform="translate(351,266)"/>
<path d="M0 0 C5.94 0 11.88 0 18 0 C18 5.61 18 11.22 18 17 C13.38 17 8.76 17 4 17 C3.90912109 19.45566406 3.90912109 19.45566406 3.81640625 21.9609375 C3.73201032 24.0989678 3.64736185 26.23698814 3.5625 28.375 C3.52318359 29.45523437 3.48386719 30.53546875 3.44335938 31.6484375 C3.38051758 33.1953125 3.38051758 33.1953125 3.31640625 34.7734375 C3.27974854 35.72653809 3.24309082 36.67963867 3.20532227 37.66162109 C3 40 3 40 2 42 C-4.27 42 -10.54 42 -17 42 C-16.92108288 47.13070839 -16.92108288 47.13070839 -16.81982422 52.26098633 C-16.79023432 56.06519761 -16.84285446 57.76428169 -19 61 C-21.69331967 61.26665585 -24.16031904 61.34837585 -26.8515625 61.29296875 C-27.53758545 61.28994751 -28.2236084 61.28692627 -28.93041992 61.28381348 C-31.49543277 61.26810585 -34.06023134 61.22622168 -36.625 61.1875 C-45.225625 61.0946875 -45.225625 61.0946875 -54 61 C-54 77.5 -54 94 -54 111 C-37.17 111 -20.34 111 -3 111 C-3 99.12 -3 87.24 -3 75 C-2.67 75 -2.34 75 -2 75 C-1.92587235 80.21440513 -1.87140896 85.42850393 -1.83520508 90.64331055 C-1.82011359 92.41745343 -1.79963809 94.19155898 -1.77368164 95.96557617 C-1.73731359 98.51490487 -1.72027762 101.06374059 -1.70703125 103.61328125 C-1.69154739 104.40712723 -1.67606354 105.20097321 -1.66011047 106.01887512 C-1.65841969 111.54461451 -1.65841969 111.54461451 -3.51831055 114.02416992 C-4.00726807 114.34619385 -4.49622559 114.66821777 -5 115 C-2.03 115.495 -2.03 115.495 1 116 C1 116.33 1 116.66 1 117 C-6.51037714 117.06949335 -14.02072096 117.12280778 -21.53134632 117.15543652 C-25.01881576 117.17109635 -28.50606532 117.1923398 -31.9934082 117.22631836 C-36.00213743 117.2651328 -40.01063548 117.2797065 -44.01953125 117.29296875 C-45.27272659 117.30845261 -46.52592194 117.32393646 -47.8170929 117.33988953 C-48.97806992 117.34011612 -50.13904694 117.34034271 -51.33520508 117.34057617 C-52.87075798 117.35056892 -52.87075798 117.35056892 -54.43733215 117.36076355 C-57 117 -57 117 -58.82978821 115.82504272 C-60.45428867 113.291499 -60.38101957 111.45999802 -60.38818359 108.45874023 C-60.39764008 107.32423935 -60.40709656 106.18973846 -60.4168396 105.02085876 C-60.41076691 103.79581131 -60.40469421 102.57076385 -60.3984375 101.30859375 C-60.40130768 100.05240738 -60.40417786 98.79622101 -60.40713501 97.50196838 C-60.40917813 94.84450358 -60.40513529 92.18786456 -60.39111328 89.53051758 C-60.37400345 86.12158645 -60.38387451 82.71336295 -60.40183067 79.30445766 C-60.41526382 76.05581074 -60.4058658 72.80724989 -60.3984375 69.55859375 C-60.40451019 68.33152206 -60.41058289 67.10445038 -60.4168396 65.8401947 C-60.40738312 64.70884598 -60.39792664 63.57749725 -60.38818359 62.41186523 C-60.38579681 61.4127562 -60.38341003 60.41364716 -60.38095093 59.38426208 C-60.19238022 58.20405235 -60.19238022 58.20405235 -60 57 C-56.30841682 54.53894455 -53.53376446 54.74424207 -49.26953125 54.8046875 C-48.51911057 54.8075174 -47.76868988 54.81034729 -46.99552917 54.81326294 C-44.60102325 54.82444938 -42.20689269 54.84955072 -39.8125 54.875 C-38.18815645 54.88503181 -36.56380703 54.89415731 -34.93945312 54.90234375 C-30.959491 54.92438363 -26.97980912 54.9589026 -23 55 C-23.02320313 53.87980469 -23.04640625 52.75960937 -23.0703125 51.60546875 C-23.08907237 50.13281916 -23.10727234 48.66016237 -23.125 47.1875 C-23.14175781 46.44951172 -23.15851563 45.71152344 -23.17578125 44.95117188 C-23.21074628 41.08753574 -23.19397555 39.29096332 -21 36 C-19.02880859 35.65942383 -19.02880859 35.65942383 -16.6484375 35.70703125 C-15.37226563 35.7215332 -15.37226563 35.7215332 -14.0703125 35.73632812 C-13.18085938 35.76146484 -12.29140625 35.78660156 -11.375 35.8125 C-10.02921875 35.83280273 -10.02921875 35.83280273 -8.65625 35.85351562 C-6.43690211 35.88893075 -4.21874812 35.93831539 -2 36 C-2.02320313 34.72382813 -2.04640625 33.44765625 -2.0703125 32.1328125 C-2.08906829 30.4635475 -2.10726869 28.7942762 -2.125 27.125 C-2.14175781 26.28324219 -2.15851563 25.44148438 -2.17578125 24.57421875 C-2.18544922 23.36572266 -2.18544922 23.36572266 -2.1953125 22.1328125 C-2.21102295 21.01737061 -2.21102295 21.01737061 -2.22705078 19.87939453 C-2 18 -2 18 0 16 C2.9093558 15.85482256 5.719946 15.81369204 8.625 15.875 C9.82769531 15.88853516 9.82769531 15.88853516 11.0546875 15.90234375 C13.03658523 15.92593777 15.01832981 15.96180935 17 16 C17 11.05 17 6.1 17 1 C11.39 1 5.78 1 0 1 C0 0.67 0 0.34 0 0 Z " fill="#CFCFCF" transform="translate(198,328)"/>
<path d="M0 0 C1.51815699 0.00015911 3.0363194 0.00585313 4.55444336 0.01586914 C5.35208603 0.01728409 6.1497287 0.01869904 6.97154236 0.02015686 C9.52916146 0.02577223 12.08669429 0.03832727 14.64428711 0.05102539 C16.37410356 0.05603841 18.10392137 0.06060166 19.83374023 0.06469727 C24.08312264 0.07574664 28.33244023 0.09302153 32.58178711 0.11352539 C32.25178711 1.43352539 31.92178711 2.75352539 31.58178711 4.11352539 C21.35178711 4.11352539 11.12178711 4.11352539 0.58178711 4.11352539 C0.58178711 15.66352539 0.58178711 27.21352539 0.58178711 39.11352539 C7.44791518 39.0739407 7.44791518 39.0739407 14.31396484 39.0234375 C15.16418213 39.02093994 16.01439941 39.01844238 16.89038086 39.01586914 C17.7649292 39.01063232 18.63947754 39.00539551 19.54052734 39 C21.58178711 39.11352539 21.58178711 39.11352539 22.58178711 40.11352539 C22.6703024 42.70711861 22.69704656 45.2739223 22.67944336 47.86743164 C22.67802841 48.64287827 22.67661346 49.41832489 22.67515564 50.2172699 C22.66954056 52.70356033 22.65698557 55.18976199 22.64428711 57.67602539 C22.63927405 59.35766472 22.63471081 61.03930545 22.63061523 62.72094727 C22.61956624 66.85184105 22.60229156 70.98266815 22.58178711 75.11352539 C23.78577148 75.0787207 24.98975586 75.04391602 26.23022461 75.00805664 C27.80573153 74.97992259 29.38125349 74.95262202 30.95678711 74.92602539 C31.75084961 74.90088867 32.54491211 74.87575195 33.36303711 74.84985352 C35.43764859 74.82348134 37.51279576 74.95866077 39.58178711 75.11352539 C41.77156312 78.3981894 41.82965086 79.37535634 41.81225586 83.18383789 C41.81032227 84.16223633 41.80838867 85.14063477 41.80639648 86.14868164 C41.78802734 87.6781543 41.78802734 87.6781543 41.76928711 89.23852539 C41.76864258 90.2659082 41.76799805 91.29329102 41.76733398 92.35180664 C41.72202797 99.97328453 41.72202797 99.97328453 40.58178711 101.11352539 C39.16608588 101.2000415 37.74619211 101.22057443 36.32788086 101.21118164 C35.47387695 101.20795898 34.61987305 101.20473633 33.73999023 101.20141602 C32.8421582 101.19303711 31.94432617 101.1846582 31.01928711 101.17602539 C30.11758789 101.17151367 29.21588867 101.16700195 28.28686523 101.16235352 C26.05177397 101.15052764 23.81681274 101.13404759 21.58178711 101.11352539 C21.91178711 99.79352539 22.24178711 98.47352539 22.58178711 97.11352539 C27.20178711 97.11352539 31.82178711 97.11352539 36.58178711 97.11352539 C36.58178711 91.50352539 36.58178711 85.89352539 36.58178711 80.11352539 C35.22182617 80.12512695 33.86186523 80.13672852 32.46069336 80.14868164 C30.68855931 80.15805801 28.91642378 80.16715837 27.14428711 80.17602539 C25.79753906 80.18859375 25.79753906 80.18859375 24.42358398 80.20141602 C23.14257812 80.20625 23.14257812 80.20625 21.83569336 80.21118164 C21.04493408 80.21641846 20.2541748 80.22165527 19.43945312 80.22705078 C17.58178711 80.11352539 17.58178711 80.11352539 16.58178711 79.11352539 C16.49327182 76.51993217 16.46652766 73.95312848 16.48413086 71.35961914 C16.48554581 70.58417252 16.48696075 69.80872589 16.48841858 69.00978088 C16.49403366 66.52349045 16.50658865 64.03728879 16.51928711 61.55102539 C16.52430017 59.86938606 16.52886341 58.18774533 16.53295898 56.50610352 C16.54400798 52.37520973 16.56128266 48.24438263 16.58178711 44.11352539 C16.01669434 44.12923584 15.45160156 44.14494629 14.86938477 44.16113281 C12.31528688 44.22339584 9.76134839 44.26248675 7.20678711 44.30102539 C5.87260742 44.33873047 5.87260742 44.33873047 4.51147461 44.37719727 C3.23530273 44.39169922 3.23530273 44.39169922 1.93334961 44.40649414 C0.75506592 44.43005981 0.75506592 44.43005981 -0.44702148 44.45410156 C-1.42276123 44.28551636 -1.42276123 44.28551636 -2.41821289 44.11352539 C-4.44123381 41.07899401 -4.66804032 40.51451085 -4.66113281 37.11694336 C-4.66420944 36.31956757 -4.66728607 35.52219177 -4.67045593 34.70065308 C-4.66327042 33.84432281 -4.6560849 32.98799255 -4.64868164 32.10571289 C-4.64799431 30.78387497 -4.64799431 30.78387497 -4.64729309 29.43533325 C-4.64427345 27.57430676 -4.63639574 25.71328274 -4.62402344 23.85229492 C-4.60573937 20.99266689 -4.60351396 18.13336208 -4.60375977 15.27368164 C-4.5988456 13.46768924 -4.59301772 11.66169904 -4.58618164 9.85571289 C-4.58506882 8.99533417 -4.58395599 8.13495544 -4.58280945 7.24850464 C-4.5255637 0.15030263 -4.5255637 0.15030263 0 0 Z " fill="#DBDBDB" transform="translate(179.418212890625,247.886474609375)"/>
<path d="M0 0 C5.94 0 11.88 0 18 0 C18 1.32 18 2.64 18 4 C13.38 4 8.76 4 4 4 C4 10.93 4 17.86 4 25 C-2.27 25 -8.54 25 -15 25 C-15 30.94 -15 36.88 -15 43 C-21.27 43 -27.54 43 -34 43 C-34 49.27 -34 55.54 -34 62 C-40.6 62 -47.2 62 -54 62 C-54 67.28 -54 72.56 -54 78 C-48.06 78 -42.12 78 -36 78 C-36.33 79.32 -36.66 80.64 -37 82 C-43.93 82 -50.86 82 -58 82 C-58 74.08 -58 66.16 -58 58 C-51.4 58 -44.8 58 -38 58 C-38 51.73 -38 45.46 -38 39 C-31.73 39 -25.46 39 -19 39 C-19 33.06 -19 27.12 -19 21 C-12.73 21 -6.46 21 0 21 C0 14.07 0 7.14 0 0 Z " fill="#FBFBFB" transform="translate(351,266)"/>
<path d="M0 0 C0.33 0 0.66 0 1 0 C1 5.61 1 11.22 1 17 C1.99 17 2.98 17 4 17 C4.33 12.05 4.66 7.1 5 2 C10.94 2 16.88 2 23 2 C23 2.33 23 2.66 23 3 C17.39 3 11.78 3 6 3 C6.11841336 8.46004868 6.11841336 8.46004868 6.27026367 13.91918945 C6.27775635 14.60198975 6.28524902 15.28479004 6.29296875 15.98828125 C6.3086792 16.68477783 6.32438965 17.38127441 6.34057617 18.09887695 C5.88731445 20.62901965 5.05207851 21.4865921 3 23 C0.18872957 23.21714241 -2.3883345 23.28284276 -5.1875 23.1875 C-5.93708984 23.17396484 -6.68667969 23.16042969 -7.45898438 23.14648438 C-9.30629767 23.11118539 -11.15324066 23.05737917 -13 23 C-12.97679687 24.04800781 -12.95359375 25.09601563 -12.9296875 26.17578125 C-12.91092697 27.55468037 -12.89272707 28.9335872 -12.875 30.3125 C-12.85824219 31.00279297 -12.84148437 31.69308594 -12.82421875 32.40429688 C-12.78782206 36.17135396 -12.85621136 37.78431704 -15 41 C-16.97119141 41.34057617 -16.97119141 41.34057617 -19.3515625 41.29296875 C-20.62773437 41.2784668 -20.62773437 41.2784668 -21.9296875 41.26367188 C-22.81914062 41.23853516 -23.70859375 41.21339844 -24.625 41.1875 C-25.5221875 41.17396484 -26.419375 41.16042969 -27.34375 41.14648438 C-29.56309789 41.11106925 -31.78125188 41.06168461 -34 41 C-33.97679687 42.12019531 -33.95359375 43.24039063 -33.9296875 44.39453125 C-33.91092763 45.86718084 -33.89272766 47.33983763 -33.875 48.8125 C-33.85824219 49.55048828 -33.84148437 50.28847656 -33.82421875 51.04882812 C-33.78925372 54.91246426 -33.80602445 56.70903668 -36 60 C-38.96762397 60.22212754 -41.66904015 60.28037029 -44.625 60.1875 C-47.38875 60.125625 -50.1525 60.06375 -53 60 C-53 65.94 -53 71.88 -53 78 C-53.33 78 -53.66 78 -54 78 C-54 71.73 -54 65.46 -54 59 C-47.565 58.505 -47.565 58.505 -41 58 C-40.08991777 55.26975332 -39.82951265 53.41568746 -39.71875 50.5859375 C-39.68136719 49.74289062 -39.64398438 48.89984375 -39.60546875 48.03125 C-39.53484654 46.25261644 -39.46453674 44.47397044 -39.39453125 42.6953125 C-39.35714844 41.85484375 -39.31976563 41.014375 -39.28125 40.1484375 C-39.25095703 39.37677246 -39.22066406 38.60510742 -39.18945312 37.81005859 C-39 36 -39 36 -38 35 C-36.58429877 34.91348389 -35.164405 34.89295096 -33.74609375 34.90234375 C-32.46508789 34.90717773 -32.46508789 34.90717773 -31.15820312 34.91210938 C-30.26037109 34.92048828 -29.36253906 34.92886719 -28.4375 34.9375 C-27.53580078 34.94201172 -26.63410156 34.94652344 -25.70507812 34.95117188 C-23.46998686 34.96299775 -21.23502563 34.9794778 -19 35 C-19.02320313 33.86820313 -19.04640625 32.73640625 -19.0703125 31.5703125 C-19.08906901 30.08854825 -19.10726934 28.60677688 -19.125 27.125 C-19.14175781 26.37863281 -19.15851563 25.63226563 -19.17578125 24.86328125 C-19.1933959 22.90805539 -19.10320189 20.95257979 -19 19 C-17 17 -17 17 -13.0859375 16.8046875 C-11.51549182 16.81613444 -9.94514302 16.84211285 -8.375 16.875 C-5.61125 16.91625 -2.8475 16.9575 0 17 C0 11.39 0 5.78 0 0 Z " fill="#C6C6C6" transform="translate(409,211)"/>
<path d="M0 0 C5.49923749 -0.07411371 10.99818479 -0.12858464 16.49780273 -0.16479492 C18.36894799 -0.17988873 20.24005783 -0.20036589 22.11108398 -0.22631836 C24.79940526 -0.26267593 27.48725913 -0.27972015 30.17578125 -0.29296875 C31.43217155 -0.31619453 31.43217155 -0.31619453 32.71394348 -0.33988953 C38.54072067 -0.34158096 38.54072067 -0.34158096 40.72673035 1.28422546 C42.9000925 4.21290552 42.30653846 7.69265286 42.1875 11.1875 C42.16719727 12.31188477 42.16719727 12.31188477 42.14648438 13.45898438 C42.11118539 15.30629767 42.05737917 17.15324066 42 19 C43.78857422 18.96519531 43.78857422 18.96519531 45.61328125 18.9296875 C47.17968124 18.91092822 48.746088 18.89272819 50.3125 18.875 C51.09818359 18.85824219 51.88386719 18.84148437 52.69335938 18.82421875 C53.45068359 18.81777344 54.20800781 18.81132812 54.98828125 18.8046875 C56.03302612 18.78897705 56.03302612 18.78897705 57.09887695 18.77294922 C59 19 59 19 62 21 C62.34057617 22.97119141 62.34057617 22.97119141 62.29296875 25.3515625 C62.2784668 26.62773437 62.2784668 26.62773437 62.26367188 27.9296875 C62.23853516 28.81914062 62.21339844 29.70859375 62.1875 30.625 C62.16719727 31.97078125 62.16719727 31.97078125 62.14648438 33.34375 C62.11107473 35.56275471 62.05726654 37.78145176 62 40 C66.62 40 71.24 40 76 40 C76 34.06 76 28.12 76 22 C76.33 22 76.66 22 77 22 C77 28.27 77 34.54 77 41 C71.72 41 66.44 41 61 41 C60.67 36.71 60.34 32.42 60 28 C57.22957891 30.77042109 57.60203894 32.76533805 57.375 36.625 C57.30023438 37.81351562 57.22546875 39.00203125 57.1484375 40.2265625 C57.09945312 41.14179688 57.05046875 42.05703125 57 43 C56.67 43 56.34 43 56 43 C56 37.06 56 31.12 56 25 C50.53995132 25.11841336 50.53995132 25.11841336 45.08081055 25.27026367 C44.39801025 25.27775635 43.71520996 25.28524902 43.01171875 25.29296875 C42.31522217 25.3086792 41.61872559 25.32438965 40.90112305 25.34057617 C39 25 39 25 36 22 C36 16.72 36 11.44 36 6 C25.44 6 14.88 6 4 6 C4 16.89 4 27.78 4 39 C10.27 39 16.54 39 23 39 C23 39.33 23 39.66 23 40 C16.4 40 9.8 40 3 40 C3 28.45 3 16.9 3 5 C17.85 4.505 17.85 4.505 33 4 C33.33 3.34 33.66 2.68 34 2 C22.78 1.67 11.56 1.34 0 1 C0 0.67 0 0.34 0 0 Z " fill="#B4B4B4" transform="translate(177,247)"/>
<path d="M0 0 C2.95839355 -0.02689449 5.91654427 -0.04678741 8.875 -0.0625 C9.71675781 -0.07087891 10.55851562 -0.07925781 11.42578125 -0.08789062 C12.23144531 -0.09111328 13.03710938 -0.09433594 13.8671875 -0.09765625 C14.98262939 -0.10551147 14.98262939 -0.10551147 16.12060547 -0.11352539 C18 0 18 0 20 1 C20 1.66 20 2.32 20 3 C16.99686252 4.50156874 14.20932478 4.09281204 10.875 4.0625 C9.59367187 4.05347656 8.31234375 4.04445312 6.9921875 4.03515625 C5.51105469 4.01775391 5.51105469 4.01775391 4 4 C4.01160156 5.21558594 4.02320313 6.43117187 4.03515625 7.68359375 C4.04453278 9.26822764 4.05363313 10.85286318 4.0625 12.4375 C4.07087891 13.23994141 4.07925781 14.04238281 4.08789062 14.86914062 C4.0965143 16.91295221 4.0522815 18.95683902 4 21 C3 22 3 22 -0.81640625 22.09765625 C-2.39847047 22.09191138 -3.98051031 22.07889593 -5.5625 22.0625 C-8.346875 22.041875 -11.13125 22.02125 -14 22 C-14 28.27 -14 34.54 -14 41 C-20.6 41 -27.2 41 -34 41 C-33.67 40.01 -33.34 39.02 -33 38 C-33.99 37.67 -34.98 37.34 -36 37 C-30.39 37 -24.78 37 -19 37 C-19.01160156 35.56785156 -19.02320313 34.13570312 -19.03515625 32.66015625 C-19.04453255 30.79427213 -19.05363292 28.92838661 -19.0625 27.0625 C-19.07087891 26.11697266 -19.07925781 25.17144531 -19.08789062 24.19726562 C-19.09272461 22.84858398 -19.09272461 22.84858398 -19.09765625 21.47265625 C-19.10551147 20.22367554 -19.10551147 20.22367554 -19.11352539 18.94946289 C-19 17 -19 17 -18 16 C-15.13732433 15.92674832 -12.299281 15.90761795 -9.4375 15.9375 C-8.63119141 15.94201172 -7.82488281 15.94652344 -6.99414062 15.95117188 C-4.99606244 15.96299482 -2.99802217 15.98093086 -1 16 C-1.01160156 15.01257813 -1.02320313 14.02515625 -1.03515625 13.0078125 C-1.04417969 11.72648438 -1.05320312 10.44515625 -1.0625 9.125 C-1.07410156 7.84882813 -1.08570313 6.57265625 -1.09765625 5.2578125 C-1 2 -1 2 0 0 Z " fill="#E2E2E2" transform="translate(352,173)"/>
<path d="M0 0 C1.51815699 0.00015911 3.0363194 0.00585313 4.55444336 0.01586914 C5.35208603 0.01728409 6.1497287 0.01869904 6.97154236 0.02015686 C9.52916146 0.02577223 12.08669429 0.03832727 14.64428711 0.05102539 C16.37410356 0.05603841 18.10392137 0.06060166 19.83374023 0.06469727 C24.08312264 0.07574664 28.33244023 0.09302153 32.58178711 0.11352539 C32.25178711 1.43352539 31.92178711 2.75352539 31.58178711 4.11352539 C21.35178711 4.11352539 11.12178711 4.11352539 0.58178711 4.11352539 C0.58178711 15.66352539 0.58178711 27.21352539 0.58178711 39.11352539 C6.52178711 39.11352539 12.46178711 39.11352539 18.58178711 39.11352539 C18.25178711 40.43352539 17.92178711 41.75352539 17.58178711 43.11352539 C10.65178711 43.11352539 3.72178711 43.11352539 -3.41821289 43.11352539 C-5.10580124 39.7383487 -4.55974647 35.9149694 -4.55102539 32.20336914 C-4.55198212 31.32072891 -4.55293884 30.43808868 -4.55392456 29.52870178 C-4.55460558 27.66171192 -4.55275674 25.7947197 -4.54858398 23.92773438 C-4.54322829 21.05927251 -4.54853488 18.19096678 -4.55493164 15.32250977 C-4.55427097 13.51196254 -4.55299004 11.70141542 -4.55102539 9.89086914 C-4.55304962 9.02735336 -4.55507385 8.16383759 -4.55715942 7.27415466 C-4.528889 0.15041307 -4.528889 0.15041307 0 0 Z " fill="#F0F0F0" transform="translate(179.418212890625,247.886474609375)"/>
<path d="M0 0 C1.32 0 2.64 0 4 0 C5.57234898 3.14469795 5.16296406 6.51217035 5.16796875 9.96484375 C5.17296135 11.1485128 5.17296135 11.1485128 5.17805481 12.35609436 C5.18312098 14.02637142 5.18546323 15.69665862 5.18530273 17.36694336 C5.18748832 19.92383485 5.20564446 22.48029432 5.22460938 25.03710938 C5.22754352 26.65885269 5.22952818 28.28059805 5.23046875 29.90234375 C5.23765427 30.66804184 5.24483978 31.43373993 5.25224304 32.22264099 C5.23586757 36.02327773 5.16057776 37.75913335 3 41 C0.04362792 41.27911945 -2.70041355 41.37175437 -5.65625 41.328125 C-6.51432251 41.32625183 -7.37239502 41.32437866 -8.25646973 41.32244873 C-10.07222371 41.31572066 -11.88796302 41.30179121 -13.70361328 41.28125 C-16.48874319 41.2501258 -19.27330727 41.24028333 -22.05859375 41.234375 C-23.82031942 41.22520393 -25.58203932 41.21482783 -27.34375 41.203125 C-28.18023071 41.19887512 -29.01671143 41.19462524 -29.87854004 41.19024658 C-35.76561937 41.11719031 -35.76561937 41.11719031 -38 40 C-38 38.68 -38 37.36 -38 36 C-25.46 36 -12.92 36 0 36 C0 24.12 0 12.24 0 0 Z " fill="#E3E3E3" transform="translate(332,365)"/>
<path d="M0 0 C0.33 0 0.66 0 1 0 C1 1.98 1 3.96 1 6 C-1.296537 7.1482685 -2.58313167 7.11561175 -5.1328125 7.09765625 C-5.93847656 7.09443359 -6.74414062 7.09121094 -7.57421875 7.08789062 C-8.41597656 7.07951172 -9.25773437 7.07113281 -10.125 7.0625 C-10.97449219 7.05798828 -11.82398438 7.05347656 -12.69921875 7.04882812 C-14.79950909 7.03702874 -16.8997633 7.01909306 -19 7 C-18.98839844 8.27617187 -18.97679687 9.55234375 -18.96484375 10.8671875 C-18.95546583 12.53645687 -18.94636563 14.20572783 -18.9375 15.875 C-18.92912109 16.71675781 -18.92074219 17.55851562 -18.91210938 18.42578125 C-18.90727539 19.63427734 -18.90727539 19.63427734 -18.90234375 20.8671875 C-18.89448853 21.98262939 -18.89448853 21.98262939 -18.88647461 23.12060547 C-19 25 -19 25 -20 27 C-27.92 27 -35.84 27 -44 27 C-44.12375 23.3803125 -44.12375 23.3803125 -44.25 19.6875 C-44.28641602 18.93170654 -44.32283203 18.17591309 -44.36035156 17.3972168 C-44.390625 15.57421875 -44.390625 15.57421875 -44 12 C-42.68 11.01 -41.36 10.02 -40 9 C-40 13.62 -40 18.24 -40 23 C-34.72 23 -29.44 23 -24 23 C-24 16.07 -24 9.14 -24 2 C-22.35128906 1.93941406 -20.70257813 1.87882812 -19.00390625 1.81640625 C-16.856761 1.73202063 -14.70962609 1.64737165 -12.5625 1.5625 C-10.92958008 1.50352539 -10.92958008 1.50352539 -9.26367188 1.44335938 C-8.22919922 1.40146484 -7.19472656 1.35957031 -6.12890625 1.31640625 C-5.17056885 1.27974854 -4.21223145 1.24309082 -3.22485352 1.20532227 C-1.02861075 1.24165576 -1.02861075 1.24165576 0 0 Z " fill="#EEEEEE" transform="translate(278,265)"/>
<path d="M0 0 C5.94 0 11.88 0 18 0 C18 0.33 18 0.66 18 1 C12.39 1 6.78 1 1 1 C1 5.62 1 10.24 1 15 C2.35996094 14.98839844 3.71992188 14.97679687 5.12109375 14.96484375 C6.8932278 14.95546738 8.66536333 14.94636702 10.4375 14.9375 C11.78424805 14.92493164 11.78424805 14.92493164 13.15820312 14.91210938 C14.01220703 14.90888672 14.86621094 14.90566406 15.74609375 14.90234375 C16.53685303 14.89710693 17.3276123 14.89187012 18.14233398 14.88647461 C20 15 20 15 21 16 C21.08685603 17.56172745 21.10702219 19.12729344 21.09765625 20.69140625 C21.09443359 21.63564453 21.09121094 22.57988281 21.08789062 23.55273438 C21.07951172 24.54595703 21.07113281 25.53917969 21.0625 26.5625 C21.05798828 27.55958984 21.05347656 28.55667969 21.04882812 29.58398438 C21.03700023 32.05601487 21.01906415 34.52801472 21 37 C25.62 37 30.24 37 35 37 C36.20049683 40.6014905 36.02198304 43.77683191 35.87890625 47.51171875 C35.85824097 48.15741821 35.83757568 48.80311768 35.81628418 49.46838379 C35.73766009 51.87495834 35.64951276 54.28121415 35.5625 56.6875 C35.2840625 64.7621875 35.2840625 64.7621875 35 73 C23.78 73 12.56 73 1 73 C1 67.06 1 61.12 1 55 C1.33 55 1.66 55 2 55 C2 60.61 2 66.22 2 72 C12.56 72 23.12 72 34 72 C34 62.1 34 52.2 34 42 C28.82398859 42.1185577 28.82398859 42.1185577 23.64892578 42.27026367 C21.763924 42.29217134 19.87923237 42.14898777 18 42 C15.93276286 38.89914429 15.75502577 38.27068319 15.8046875 34.76953125 C15.80968262 34.04612549 15.81467773 33.32271973 15.81982422 32.57739258 C15.83803223 31.66497803 15.85624023 30.75256348 15.875 29.8125 C15.936875 25.4503125 15.936875 25.4503125 16 21 C10.06 21 4.12 21 -2 21 C-2 20.67 -2 20.34 -2 20 C4.27 20 10.54 20 17 20 C17 19.01 17 18.02 17 17 C11.39 16.67 5.78 16.34 0 16 C0 10.72 0 5.44 0 0 Z " fill="#B7B7B7" transform="translate(297,328)"/>
<path d="M0 0 C6.93 0 13.86 0 21 0 C20.67 1.32 20.34 2.64 20 4 C14.72 4 9.44 4 4 4 C4 16.87 4 29.74 4 43 C1.36 43 -1.28 43 -4 43 C-4 42.01 -4 41.02 -4 40 C-2.02 39.505 -2.02 39.505 0 39 C0 26.13 0 13.26 0 0 Z " fill="#FCFCFC" transform="translate(196,401)"/>
<path d="M0 0 C0.33 0 0.66 0 1 0 C1 6.27 1 12.54 1 19 C-3.62 19.33 -8.24 19.66 -13 20 C-13 20.66 -13 21.32 -13 22 C-7.72 22.33 -2.44 22.66 3 23 C3 23.33 3 23.66 3 24 C-2.28 24 -7.56 24 -13 24 C-12.98839844 25.20398438 -12.97679687 26.40796875 -12.96484375 27.6484375 C-12.95546566 29.22395679 -12.94636548 30.79947775 -12.9375 32.375 C-12.92912109 33.1690625 -12.92074219 33.963125 -12.91210938 34.78125 C-12.88671875 40.7734375 -12.88671875 40.7734375 -14 43 C-15.65 42.34 -17.3 41.68 -19 41 C-19 40.34 -19 39.68 -19 39 C-24.94 39 -30.88 39 -37 39 C-37 38.67 -37 38.34 -37 38 C-31.06 38 -25.12 38 -19 38 C-19.07905744 32.16607311 -19.07905744 32.16607311 -19.18017578 26.33251953 C-19.1851709 25.60661621 -19.19016602 24.88071289 -19.1953125 24.1328125 C-19.20578613 23.38918457 -19.21625977 22.64555664 -19.22705078 21.87939453 C-19 20 -19 20 -17 18 C-14.08274582 17.85442843 -11.28685195 17.81401033 -8.375 17.875 C-5.61125 17.91625 -2.8475 17.9575 0 18 C0 12.06 0 6.12 0 0 Z " fill="#B8B8B8" transform="translate(332,191)"/>
<path d="M0 0 C1.32 0.66 2.64 1.32 4 2 C6.41179904 2.36179503 6.41179904 2.36179503 8.984375 2.4140625 C10.38623047 2.47207031 10.38623047 2.47207031 11.81640625 2.53125 C12.78449219 2.5621875 13.75257813 2.593125 14.75 2.625 C16.22533203 2.68300781 16.22533203 2.68300781 17.73046875 2.7421875 C20.15346037 2.83628426 22.57644796 2.92192328 25 3 C25 3.33 25 3.66 25 4 C18.73 4 12.46 4 6 4 C6.11859265 9.83416003 6.11859265 9.83416003 6.27026367 15.66748047 C6.27775635 16.39338379 6.28524902 17.11928711 6.29296875 17.8671875 C6.3086792 18.61081543 6.32438965 19.35444336 6.34057617 20.12060547 C6.22818604 20.74080566 6.1157959 21.36100586 6 22 C2.20836973 24.52775351 -0.80874031 24.22443035 -5.1875 24.125 C-5.93708984 24.11597656 -6.68667969 24.10695312 -7.45898438 24.09765625 C-9.30612654 24.07412578 -11.15310412 24.03825561 -13 24 C-13 28.62 -13 33.24 -13 38 C-13.33 38 -13.66 38 -14 38 C-14 33.05 -14 28.1 -14 23 C-8.72 22.67 -3.44 22.34 2 22 C2 21.34 2 20.68 2 20 C-4.27 19.67 -10.54 19.34 -17 19 C-17 18.67 -17 18.34 -17 18 C-11.39 18 -5.78 18 0 18 C0 12.06 0 6.12 0 0 Z " fill="#B4B4B4" transform="translate(370,154)"/>
<path d="M0 0 C1.98 0 3.96 0 6 0 C6 1.32 6 2.64 6 4 C5.34 4 4.68 4 4 4 C4.00785522 4.85549438 4.00785522 4.85549438 4.01586914 5.72827148 C4.03658221 8.29800323 4.0496419 10.86771747 4.0625 13.4375 C4.07087891 14.33533203 4.07925781 15.23316406 4.08789062 16.15820312 C4.09272461 17.43920898 4.09272461 17.43920898 4.09765625 18.74609375 C4.10551147 19.93223267 4.10551147 19.93223267 4.11352539 21.14233398 C4 23 4 23 3 24 C0.13530675 24.07330331 -2.69893674 24.09217831 -5.5625 24.0625 C-9.7390625 24.0315625 -9.7390625 24.0315625 -14 24 C-14 29.94 -14 35.88 -14 42 C-14.33 42 -14.66 42 -15 42 C-15 35.73 -15 29.46 -15 23 C-8.565 22.505 -8.565 22.505 -2 22 C-1.09166031 19.27498092 -0.81640015 17.37766029 -0.68359375 14.55078125 C-0.64169922 13.70322266 -0.59980469 12.85566406 -0.55664062 11.98242188 C-0.49766602 10.66081055 -0.49766602 10.66081055 -0.4375 9.3125 C-0.39431641 8.41982422 -0.35113281 7.52714844 -0.30664062 6.60742188 C-0.20064647 4.40509892 -0.09857949 2.20266527 0 0 Z " fill="#D9D9D9" transform="translate(370,247)"/>
<path d="M0 0 C5.94 0 11.88 0 18 0 C18.33 0.66 18.66 1.32 19 2 C19.66 1.67 20.32 1.34 21 1 C20.67 1.99 20.34 2.98 20 4 C14.06 4 8.12 4 2 4 C2.33 3.01 2.66 2.02 3 1 C2.01 0.67 1.02 0.34 0 0 Z " fill="#FDFDFD" transform="translate(316,210)"/>
<path d="M0 0 C0.66 0.33 1.32 0.66 2 1 C2.02703381 2.93742341 2.04641125 4.87495479 2.0625 6.8125 C2.07410156 7.89144531 2.08570313 8.97039062 2.09765625 10.08203125 C2 13 2 13 1 16 C0.01 16 -0.98 16 -2 16 C-2 11.05 -2 6.1 -2 1 C-1.34 0.67 -0.68 0.34 0 0 Z " fill="#FDFDFD" transform="translate(412,212)"/>
<path d="M0 0 C1.32 0 2.64 0 4 0 C3.34 1.98 2.68 3.96 2 6 C1.34 6 0.68 6 0 6 C0 4.02 0 2.04 0 0 Z " fill="#F4F4F4" transform="translate(196,401)"/>
<path d="M0 0 C1.65 0 3.3 0 5 0 C4.34 1.32 3.68 2.64 3 4 C2.01 4 1.02 4 0 4 C0 2.68 0 1.36 0 0 Z " fill="#F1F1F1" transform="translate(410,209)"/>
</svg>
